<svg width="41" height="40" viewBox="0 0 41 40" fill="none" xmlns="http://www.w3.org/2000/svg">
<rect x="0.5" width="40" height="40" rx="20" fill="#1E7DC0"/>
<g clip-path="url(#clip0_1333_7152)">
<path d="M21.7499 18.75C21.7499 19.44 21.1899 20 20.4999 20C19.8099 20 19.2499 19.44 19.2499 18.75C19.2499 18.06 19.8099 17.5 20.4999 17.5C21.1899 17.5 21.7499 18.06 21.7499 18.75ZM24.6665 17.5C23.9765 17.5 23.4165 18.06 23.4165 18.75C23.4165 19.44 23.9765 20 24.6665 20C25.3565 20 25.9165 19.44 25.9165 18.75C25.9165 18.06 25.3565 17.5 24.6665 17.5ZM16.3332 17.5C15.6432 17.5 15.0832 18.06 15.0832 18.75C15.0832 19.44 15.6432 20 16.3332 20C17.0232 20 17.5832 19.44 17.5832 18.75C17.5832 18.06 17.0232 17.5 16.3332 17.5ZM30.4999 13.3333V23.3333C30.4999 25.1717 29.0049 26.6667 27.1665 26.6667H24.7899L21.5832 29.3167C21.2824 29.585 20.8965 29.72 20.5065 29.72C20.1099 29.72 19.7107 29.58 19.3924 29.2975L16.2682 26.6667H13.8324C11.994 26.6667 10.499 25.1717 10.499 23.3333V13.3333C10.4999 11.495 11.9949 10 13.8332 10H27.1665C29.0049 10 30.4999 11.495 30.4999 13.3333ZM28.8332 13.3333C28.8332 12.4142 28.0857 11.6667 27.1665 11.6667H13.8332C12.914 11.6667 12.1665 12.4142 12.1665 13.3333V23.3333C12.1665 24.2525 12.914 25 13.8332 25H16.5732C16.769 25 16.9599 25.0692 17.1107 25.1958L20.484 28.0375L23.9599 25.1908C24.109 25.0675 24.2965 25 24.4907 25H27.1674C28.0865 25 28.834 24.2525 28.834 23.3333L28.8332 13.3333Z" fill="white"/>
</g>
<defs>
<clipPath id="clip0_1333_7152">
<rect width="20" height="20" fill="white" transform="translate(10.5 10)"/>
</clipPath>
</defs>
</svg>
