<svg width="41" height="40" viewBox="0 0 41 40" fill="none" xmlns="http://www.w3.org/2000/svg">
<rect x="0.5" width="40" height="40" rx="20" fill="#1E7DC0"/>
<g clip-path="url(#clip0_1333_7138)">
<path d="M21.333 10.8327C21.333 10.6117 21.4208 10.3997 21.5771 10.2435C21.7334 10.0872 21.9453 9.99938 22.1663 9.99938C24.3757 10.0018 26.4939 10.8806 28.0562 12.4428C29.6185 14.0051 30.4972 16.1233 30.4997 18.3327C30.4997 18.5537 30.4119 18.7657 30.2556 18.922C30.0993 19.0782 29.8873 19.166 29.6663 19.166C29.4453 19.166 29.2334 19.0782 29.0771 18.922C28.9208 18.7657 28.833 18.5537 28.833 18.3327C28.831 16.5652 28.128 14.8707 26.8782 13.6209C25.6284 12.371 23.9338 11.668 22.1663 11.666C21.9453 11.666 21.7334 11.5782 21.5771 11.422C21.4208 11.2657 21.333 11.0537 21.333 10.8327ZM22.1663 14.9994C23.0504 14.9994 23.8982 15.3506 24.5234 15.9757C25.1485 16.6008 25.4997 17.4487 25.4997 18.3327C25.4997 18.5537 25.5875 18.7657 25.7437 18.922C25.9 19.0782 26.112 19.166 26.333 19.166C26.554 19.166 26.766 19.0782 26.9223 18.922C27.0785 18.7657 27.1663 18.5537 27.1663 18.3327C27.165 17.007 26.6378 15.736 25.7004 14.7986C24.763 13.8612 23.492 13.334 22.1663 13.3327C21.9453 13.3327 21.7334 13.4205 21.5771 13.5768C21.4208 13.7331 21.333 13.945 21.333 14.166C21.333 14.3871 21.4208 14.599 21.5771 14.7553C21.7334 14.9116 21.9453 14.9994 22.1663 14.9994ZM29.7438 23.9485C30.2268 24.4328 30.4979 25.0888 30.4979 25.7727C30.4979 26.4566 30.2268 27.1126 29.7438 27.5969L28.9855 28.471C22.1605 35.0052 5.55216 18.401 11.9855 11.5544L12.9438 10.721C13.4286 10.2516 14.0788 9.99192 14.7536 9.99816C15.4284 10.0044 16.0736 10.2761 16.5497 10.7544C16.5755 10.7802 18.1197 12.786 18.1197 12.786C18.5779 13.2674 18.8329 13.9068 18.8318 14.5714C18.8307 15.2359 18.5736 15.8745 18.1138 16.3544L17.1488 17.5677C17.6829 18.8653 18.468 20.0446 19.4593 21.0378C20.4505 22.031 21.6281 22.8186 22.9247 23.3552L24.1455 22.3844C24.6254 21.925 25.2639 21.6681 25.9282 21.6672C26.5926 21.6663 27.2318 21.9213 27.713 22.3794C27.713 22.3794 29.718 23.9227 29.7438 23.9485ZM28.5972 25.1602C28.5972 25.1602 26.603 23.626 26.5772 23.6002C26.4055 23.43 26.1735 23.3345 25.9317 23.3345C25.69 23.3345 25.458 23.43 25.2863 23.6002C25.2638 23.6235 23.583 24.9627 23.583 24.9627C23.4697 25.0529 23.3349 25.112 23.1919 25.1342C23.0488 25.1564 22.9024 25.1409 22.7672 25.0894C21.0875 24.464 19.5619 23.485 18.2937 22.2186C17.0254 20.9522 16.0442 19.4281 15.4163 17.7494C15.3607 17.6123 15.3425 17.4628 15.3637 17.3163C15.385 17.1699 15.4448 17.0317 15.5372 16.916C15.5372 16.916 16.8763 15.2344 16.8988 15.2127C17.0691 15.041 17.1646 14.8091 17.1646 14.5673C17.1646 14.3255 17.0691 14.0936 16.8988 13.9219C16.873 13.8969 15.3388 11.901 15.3388 11.901C15.1646 11.7448 14.9372 11.6611 14.7032 11.6672C14.4692 11.6732 14.2464 11.7685 14.0805 11.9335L13.1222 12.7669C8.4205 18.4202 22.813 32.0144 27.7672 27.3327L28.5263 26.4577C28.7042 26.2929 28.8111 26.0654 28.8243 25.8233C28.8375 25.5812 28.7561 25.3434 28.5972 25.1602Z" fill="white"/>
</g>
<defs>
<clipPath id="clip0_1333_7138">
<rect width="20" height="20" fill="white" transform="translate(10.5 10)"/>
</clipPath>
</defs>
</svg>
