<svg width="21" height="20" viewBox="0 0 21 20" fill="none" xmlns="http://www.w3.org/2000/svg">
<g clip-path="url(#clip0_2406_6697)">
<path d="M17.9998 3.33333H15.4165C15.2231 2.39284 14.7114 1.54779 13.9675 0.940598C13.2237 0.333408 12.2933 0.0012121 11.3332 0L9.6665 0C8.70633 0.0012121 7.77594 0.333408 7.03213 0.940598C6.28832 1.54779 5.77658 2.39284 5.58317 3.33333H2.99984C2.77882 3.33333 2.56686 3.42113 2.41058 3.57741C2.2543 3.73369 2.1665 3.94565 2.1665 4.16667C2.1665 4.38768 2.2543 4.59964 2.41058 4.75592C2.56686 4.9122 2.77882 5 2.99984 5H3.83317V15.8333C3.83449 16.938 4.27391 17.997 5.05502 18.7782C5.83614 19.5593 6.89517 19.9987 7.99984 20H12.9998C14.1045 19.9987 15.1635 19.5593 15.9447 18.7782C16.7258 17.997 17.1652 16.938 17.1665 15.8333V5H17.9998C18.2209 5 18.4328 4.9122 18.5891 4.75592C18.7454 4.59964 18.8332 4.38768 18.8332 4.16667C18.8332 3.94565 18.7454 3.73369 18.5891 3.57741C18.4328 3.42113 18.2209 3.33333 17.9998 3.33333ZM9.6665 1.66667H11.3332C11.8501 1.6673 12.3541 1.82781 12.7762 2.1262C13.1983 2.42459 13.5177 2.84624 13.6907 3.33333H7.309C7.48199 2.84624 7.80142 2.42459 8.22349 2.1262C8.64557 1.82781 9.14961 1.6673 9.6665 1.66667ZM15.4998 15.8333C15.4998 16.4964 15.2364 17.1323 14.7676 17.6011C14.2988 18.0699 13.6629 18.3333 12.9998 18.3333H7.99984C7.3368 18.3333 6.70091 18.0699 6.23207 17.6011C5.76323 17.1323 5.49984 16.4964 5.49984 15.8333V5H15.4998V15.8333Z" fill="#F44336"/>
<path d="M8.83333 15.0007C9.05435 15.0007 9.26631 14.9129 9.42259 14.7566C9.57887 14.6003 9.66667 14.3883 9.66667 14.1673V9.16732C9.66667 8.9463 9.57887 8.73434 9.42259 8.57806C9.26631 8.42178 9.05435 8.33398 8.83333 8.33398C8.61232 8.33398 8.40036 8.42178 8.24408 8.57806C8.0878 8.73434 8 8.9463 8 9.16732V14.1673C8 14.3883 8.0878 14.6003 8.24408 14.7566C8.40036 14.9129 8.61232 15.0007 8.83333 15.0007Z" fill="#F44336"/>
<path d="M12.1668 15.0007C12.3878 15.0007 12.5998 14.9129 12.7561 14.7566C12.9124 14.6003 13.0002 14.3883 13.0002 14.1673V9.16732C13.0002 8.9463 12.9124 8.73434 12.7561 8.57806C12.5998 8.42178 12.3878 8.33398 12.1668 8.33398C11.9458 8.33398 11.7339 8.42178 11.5776 8.57806C11.4213 8.73434 11.3335 8.9463 11.3335 9.16732V14.1673C11.3335 14.3883 11.4213 14.6003 11.5776 14.7566C11.7339 14.9129 11.9458 15.0007 12.1668 15.0007Z" fill="#F44336"/>
</g>
<defs>
<clipPath id="clip0_2406_6697">
<rect width="20" height="20" fill="white" transform="translate(0.5)"/>
</clipPath>
</defs>
</svg>
