<svg width="41" height="40" viewBox="0 0 41 40" fill="none" xmlns="http://www.w3.org/2000/svg">
<rect x="0.5" width="40" height="40" rx="20" fill="#1E7DC0"/>
<g clip-path="url(#clip0_1333_7145)">
<path d="M26.3333 10.834H14.6667C13.562 10.8353 12.503 11.2747 11.7218 12.0558C10.9407 12.8369 10.5013 13.896 10.5 15.0007V25.0007C10.5013 26.1053 10.9407 27.1644 11.7218 27.9455C12.503 28.7266 13.562 29.166 14.6667 29.1673H26.3333C27.438 29.166 28.497 28.7266 29.2782 27.9455C30.0593 27.1644 30.4987 26.1053 30.5 25.0007V15.0007C30.4987 13.896 30.0593 12.8369 29.2782 12.0558C28.497 11.2747 27.438 10.8353 26.3333 10.834ZM14.6667 12.5007H26.3333C26.8323 12.5016 27.3196 12.6519 27.7325 12.9322C28.1453 13.2124 28.4649 13.6098 28.65 14.0732L22.2683 20.4557C21.7987 20.9234 21.1628 21.186 20.5 21.186C19.8372 21.186 19.2013 20.9234 18.7317 20.4557L12.35 14.0732C12.5351 13.6098 12.8547 13.2124 13.2675 12.9322C13.6804 12.6519 14.1677 12.5016 14.6667 12.5007ZM26.3333 27.5007H14.6667C14.0036 27.5007 13.3677 27.2373 12.8989 26.7684C12.4301 26.2996 12.1667 25.6637 12.1667 25.0007V16.2507L17.5533 21.634C18.3355 22.4142 19.3952 22.8524 20.5 22.8524C21.6048 22.8524 22.6645 22.4142 23.4467 21.634L28.8333 16.2507V25.0007C28.8333 25.6637 28.5699 26.2996 28.1011 26.7684C27.6323 27.2373 26.9964 27.5007 26.3333 27.5007Z" fill="white"/>
</g>
<defs>
<clipPath id="clip0_1333_7145">
<rect width="20" height="20" fill="white" transform="translate(10.5 10)"/>
</clipPath>
</defs>
</svg>
