<svg width="20" height="20" viewBox="0 0 20 20" fill="none" xmlns="http://www.w3.org/2000/svg">
<path d="M16.6667 5.08417V4.16667C16.6667 1.86917 14.7975 0 12.5 0H7.5C5.2025 0 3.33333 1.86917 3.33333 4.16667V5.08417C1.43417 5.47167 0 7.155 0 9.16667V15.8333C0 18.1308 1.86917 20 4.16667 20H15.8333C18.1308 20 20 18.1308 20 15.8333V9.16667C20 7.155 18.5658 5.47083 16.6667 5.08417ZM1.66667 15.8333V9.16667C1.66667 8.08 2.36333 7.15417 3.33333 6.81V18.19C2.36333 17.8458 1.66667 16.92 1.66667 15.8333ZM5 4.16667C5 2.78833 6.12167 1.66667 7.5 1.66667H12.5C13.8783 1.66667 15 2.78833 15 4.16667V18.3333H5V4.16667ZM18.3333 15.8333C18.3333 16.92 17.6367 17.8458 16.6667 18.19V6.81C17.6367 7.15417 18.3333 8.08 18.3333 9.16667V15.8333ZM9.16667 11.6667C9.16667 12.1267 8.79417 12.5 8.33333 12.5H7.5C7.03917 12.5 6.66667 12.1267 6.66667 11.6667C6.66667 11.2067 7.03917 10.8333 7.5 10.8333H8.33333C8.79417 10.8333 9.16667 11.2067 9.16667 11.6667ZM13.3333 11.6667C13.3333 12.1267 12.9608 12.5 12.5 12.5H11.6667C11.2058 12.5 10.8333 12.1267 10.8333 11.6667C10.8333 11.2067 11.2058 10.8333 11.6667 10.8333H12.5C12.9608 10.8333 13.3333 11.2067 13.3333 11.6667ZM9.16667 15C9.16667 15.46 8.79417 15.8333 8.33333 15.8333H7.5C7.03917 15.8333 6.66667 15.46 6.66667 15C6.66667 14.54 7.03917 14.1667 7.5 14.1667H8.33333C8.79417 14.1667 9.16667 14.54 9.16667 15ZM13.3333 15C13.3333 15.46 12.9608 15.8333 12.5 15.8333H11.6667C11.2058 15.8333 10.8333 15.46 10.8333 15C10.8333 14.54 11.2058 14.1667 11.6667 14.1667H12.5C12.9608 14.1667 13.3333 14.54 13.3333 15ZM10.8333 7.5C10.8333 7.96 10.4608 8.33333 10 8.33333C9.53917 8.33333 9.16667 7.96 9.16667 7.5V6.66667H8.33333C7.8725 6.66667 7.5 6.29333 7.5 5.83333C7.5 5.37333 7.8725 5 8.33333 5H9.16667V4.16667C9.16667 3.70667 9.53917 3.33333 10 3.33333C10.4608 3.33333 10.8333 3.70667 10.8333 4.16667V5H11.6667C12.1275 5 12.5 5.37333 12.5 5.83333C12.5 6.29333 12.1275 6.66667 11.6667 6.66667H10.8333V7.5Z" fill="#1E7DC0"/>
</svg>
