<svg width="168" height="81" viewBox="0 0 168 81" fill="none" xmlns="http://www.w3.org/2000/svg">
<path d="M75.2479 48.9164C78.8883 48.2275 82.0571 46.7549 85.2257 44.9563C85.059 44.6065 84.9586 44.3013 84.7831 44.0483C84.4649 43.5898 84.0701 43.1833 83.7627 42.7185C81.8246 39.7878 81.2562 36.6422 82.4823 33.3002C83.2515 31.2035 84.7327 29.7256 86.8406 28.9264C91.2386 27.259 94.4828 30.6606 94.8949 33.6399C95.2645 36.3116 94.7189 38.7781 93.0241 40.8982C92.2616 41.8521 91.3278 42.6713 90.4514 43.5309C90.0586 43.9162 89.6158 44.2505 89.2237 44.5842C89.2925 45.0669 89.6444 45.1262 89.9389 45.2441C92.1329 46.1232 94.4002 46.2056 96.6993 45.8245C99.9321 45.2887 102.697 43.7656 105.216 41.7354C105.695 41.3494 105.924 40.8852 105.775 40.268C105.585 39.4845 105.645 38.7129 105.9 37.955C106.554 36.0118 108.523 34.9598 110.604 35.4368C112.582 35.8901 113.798 37.5959 113.622 39.6701C113.453 41.6681 111.851 43.2119 109.849 43.2372C109.305 43.244 108.713 43.1749 108.223 42.9597C107.44 42.6165 106.846 42.793 106.214 43.2746C105.415 43.8838 104.594 44.471 103.741 45.0013C100.829 46.8124 97.6568 47.7842 94.2168 47.8053C92.2941 47.8171 90.4388 47.4574 88.6785 46.6607C88.475 46.5686 88.2645 46.4898 88.0679 46.385C87.4103 46.0345 86.8086 46.1256 86.1676 46.4902C84.9057 47.2078 83.6311 47.9094 82.3241 48.5396C80.6091 49.3663 78.8151 49.9994 76.9535 50.4158C72.71 51.365 68.5038 51.224 64.388 49.7997C59.5045 48.1097 56.3022 44.7421 54.8008 39.8005C53.5796 35.781 54.2608 32.0668 56.7584 28.6898C57.0238 28.331 57.3272 28.0003 57.6114 27.6553C58.6017 26.4531 58.6343 26.1185 57.8675 24.8269C57.6107 24.3945 57.3312 23.9756 57.0733 23.5438C56.7581 23.016 56.4464 22.4859 56.1478 21.9486C54.7665 19.4632 54.5952 16.8575 55.3994 14.1628C55.559 13.6278 55.7146 13.0843 55.9476 12.5795C57.3143 9.61872 57.7261 6.48766 57.682 3.26517C57.6745 2.71113 57.6932 2.13996 57.818 1.60424C58.1112 0.346072 59.0986 -0.236475 60.3447 0.0887877C60.8822 0.229065 61.4021 0.447655 61.9168 0.662332C63.0537 1.13658 64.1821 1.62709 65.4535 1.59381C65.6162 1.58955 65.7851 1.64276 65.9438 1.69259C66.4284 1.8447 66.6245 2.21545 66.5026 2.74409C66.465 2.90699 66.4143 3.06876 66.3511 3.2235C66.1692 3.6693 65.5561 3.93006 65.2655 3.60335C64.1542 2.35438 62.5266 2.16864 61.135 1.50399C60.786 1.3373 60.4026 1.22172 60.0224 1.14561C59.3665 1.01425 58.9053 1.32795 58.8102 1.96666C58.753 2.35086 58.7461 2.74712 58.7595 3.1365C58.8623 6.12826 58.3763 9.03955 57.5853 11.911C57.4517 12.3959 57.335 12.8855 57.2005 13.3701C56.6332 15.4145 56.9009 17.3791 57.9034 19.212C58.4078 20.1343 59.0502 20.999 59.7331 21.8022C61.08 23.3864 62.8525 23.8921 64.8725 23.568C66.5424 23.3001 68.0934 22.645 69.6377 21.9946C69.9733 21.8533 70.2689 21.5357 70.4962 21.234C71.2354 20.253 72.0016 19.2824 72.6358 18.2342C74.2123 15.6286 76.0965 13.2942 78.4128 11.3131C78.4977 11.2404 78.5842 11.1691 78.664 11.0911C79.5578 10.2178 79.4987 9.6314 78.3698 9.02769C77.336 8.47487 76.2658 7.98685 75.1932 7.51192C74.8473 7.35877 74.4459 7.31779 74.0645 7.26142C73.6115 7.19446 73.1924 7.08513 72.8482 6.62398C72.9795 6.05744 73.3453 5.59206 73.8083 5.05219C74.1125 5.23574 74.4428 5.34646 74.6441 5.57215C75.4137 6.43478 76.399 6.93214 77.4372 7.36863C78.003 7.60651 78.5482 7.89367 79.1009 8.16239C80.3713 8.78012 80.9919 10.4465 79.5522 11.761C78.5218 12.7017 77.4926 13.6519 76.547 14.6755C75.0203 16.3282 73.8329 18.2226 72.8636 20.2523C72.6469 20.7061 72.4397 21.1645 72.2175 21.6156C70.6748 24.7471 68.0903 26.3572 64.6848 26.7639C64.5184 26.7837 64.3506 26.801 64.1833 26.8017C61.6942 26.8118 59.8083 27.9923 58.3044 29.8713C57.0943 31.3834 56.3201 33.1112 56.014 35.0229C55.9093 35.6772 55.8921 36.367 55.9683 37.0251C56.4035 40.7829 58.1401 43.816 61.2402 45.9921C65.4307 48.9335 70.0675 49.9157 75.2479 48.9164ZM57.5773 20.2361C57.5367 20.1525 57.4961 20.0688 57.4555 19.9852C57.4281 20.0679 57.3586 20.1692 57.3847 20.2283C57.4129 20.2921 57.5305 20.3163 57.5753 20.6075C57.9622 21.9829 58.7991 23.1047 59.6621 24.1971C60.2808 24.9804 61.1409 25.3658 62.1562 25.3557C63.0403 25.347 65.3054 24.7182 66.5291 24.124C65.852 23.9731 65.27 24.1094 64.6956 24.2084C62.1181 24.6529 60.0909 23.8327 58.623 21.6428C58.3214 21.1928 57.9325 20.8011 57.5773 20.2361ZM83.8572 38.7152C84.4639 40.746 85.4747 42.4909 87.3406 43.7042C88.873 42.5123 90.3153 41.2865 91.5526 39.8346C91.7336 39.6223 91.8931 39.3909 92.0527 39.1614C93.1312 37.611 93.4656 35.8893 93.1487 34.0495C92.5468 30.557 88.9104 29.1523 86.1158 31.3317C84.8318 32.333 84.0758 33.6655 83.746 35.2654C83.5259 36.3337 83.6483 37.378 83.8572 38.7152ZM110.903 37.0451C110.649 36.9375 110.404 36.793 110.139 36.7289C109.035 36.461 107.863 37.0299 107.368 38.05C106.905 39.0058 107.15 40.219 107.953 40.9464C108.768 41.6843 109.97 41.7816 110.881 41.1832C111.872 40.5322 112.304 39.3511 111.868 38.2712C111.709 37.8751 111.368 37.5519 110.903 37.0451ZM67.2962 23.9351C67.2363 23.9401 67.2663 23.9376 67.2962 23.9351V23.9351Z" fill="white"/>
<path d="M88.1395 67.3498C88.5905 68.5741 88.3407 69.8248 88.3743 71.2098C88.4687 71.3512 88.4699 71.3095 88.4699 71.3095C88.0775 71.4469 88.0804 71.8306 87.9954 72.1321C86.7891 76.4082 83.7868 78.7124 79.6265 79.6859C78.5477 79.9383 77.4159 80.0362 76.305 80.0635C74.0149 80.1199 71.7225 80.0827 69.4311 80.0792C69.0964 80.0787 68.7558 80.0866 68.4282 80.0304C67.0119 79.7875 66.05 78.7007 65.9663 77.2709C65.9499 76.9923 65.9602 76.7121 65.9602 76.4327C65.9599 71.5145 65.9598 66.5963 65.9602 61.6782C65.9602 61.3429 65.9426 61.0058 65.9696 60.6726C66.0683 59.4527 66.9379 58.4618 68.144 58.2361C68.5788 58.1547 69.0331 58.1581 69.4786 58.1567C71.7141 58.1494 73.9497 58.1551 76.1852 58.153C77.5897 58.1517 78.9811 58.2939 80.3284 58.6856C84.3295 59.849 87.0763 62.2853 88.0084 66.6322C87.7939 67.0718 87.9162 67.2299 88.1395 67.3498ZM79.3866 63.0965C77.3216 62.1921 75.1323 62.3311 72.9617 62.3508C72.3756 62.356 71.7438 62.1826 71.1191 62.6333C71.1191 66.7432 71.1172 70.8639 71.1246 74.9846C71.125 75.1948 71.2051 75.405 71.2432 75.5911C72.407 75.7882 76.742 75.8587 77.62 75.6677C79.8013 75.1932 81.5426 74.13 82.4892 71.9986C83.8688 68.8923 82.8162 64.6301 79.3866 63.0965Z" fill="white"/>
<path d="M0.248835 79.0792C2.95787 73.122 5.61613 67.2808 8.27522 61.4399C8.4602 61.0336 8.63437 60.6212 8.84226 60.2267C10.3129 57.4359 14.0073 57.6317 15.5732 59.7703C15.8663 60.1706 16.0821 60.6346 16.29 61.0891C18.9363 66.8753 21.5765 72.6643 24.2116 78.4556C24.4146 78.9017 24.5678 79.3704 24.7866 79.939C23.0692 80.2855 21.6024 79.9658 20.2264 79.151C18.8185 78.3172 18.0024 77.0012 17.4776 75.563C16.121 75.3478 9.5671 75.2959 7.29309 75.4721C6.51425 76.6359 5.79464 77.9313 4.49398 78.6807C3.7742 79.0954 3.01622 79.4665 2.23566 79.7462C1.56595 79.9862 0.848907 80.17 0 79.9731C0.0730271 79.6866 0.135638 79.4409 0.248835 79.0792ZM13.2894 71.3657C14.7579 70.5674 15.0649 69.8849 14.4917 68.4344C13.921 66.9901 13.2822 65.5727 12.6692 64.1453C12.5869 63.9536 12.3436 63.6261 12.2491 63.8217C11.4806 65.4132 10.7329 67.0179 10.0855 68.6602C9.57936 69.9439 10.3381 71.1672 11.6849 71.3862C12.1166 71.4564 12.5679 71.4064 13.2894 71.3657Z" fill="white"/>
<path d="M42.0854 74.4543C41.7086 73.1954 41.5695 72.0476 41.6813 70.8625C42.0358 67.1066 44.1235 64.7068 47.5864 63.4961C50.0905 62.6206 52.6432 62.7142 55.1282 63.6792C58.481 64.9812 60.5221 67.9972 60.5316 71.6001C60.5413 75.2577 58.4423 78.3601 55.0247 79.6181C52.2409 80.6428 49.4442 80.629 46.707 79.425C44.5104 78.4588 42.9522 76.858 42.0854 74.4543ZM50.5123 67.0612C48.7494 67.3389 47.5557 68.3076 47.0081 70.0127C46.6761 71.0465 46.668 72.1208 46.9755 73.1501C47.4618 74.7773 48.5327 75.8523 50.2587 76.1084C51.9717 76.3627 53.4862 75.9796 54.5504 74.4858C55.6029 73.0082 55.6489 70.4481 54.6512 68.9295C53.739 67.5409 52.4051 66.9941 50.5123 67.0612Z" fill="white"/>
<path d="M137.296 74.898C136.648 73.1075 136.511 71.3854 136.904 69.6679C137.626 66.5121 139.654 64.4776 142.673 63.478C145.248 62.6257 147.851 62.717 150.374 63.7521C153.638 65.0916 155.58 68.0704 155.576 71.6356C155.573 75.204 153.632 78.1626 150.359 79.5054C147.658 80.6132 144.912 80.6287 142.192 79.6038C139.954 78.7606 138.293 77.2531 137.296 74.898ZM149.788 69.0444C149.66 68.8613 149.55 68.6629 149.402 68.4975C148.252 67.2117 146.792 66.7978 145.149 67.1447C143.46 67.5014 142.427 68.6226 141.984 70.2671C141.718 71.2552 141.738 72.2532 142.069 73.2391C142.746 75.2582 144.211 76.2486 146.423 76.1629C148.407 76.086 149.816 74.867 150.311 72.8561C150.62 71.6018 150.461 70.4212 149.788 69.0444Z" fill="white"/>
<path d="M88.5841 71.4241C88.47 71.3095 88.4688 71.3512 88.4634 71.3606C88.7566 71.2334 88.7982 70.9654 88.825 70.6799C89.2188 66.479 92.5666 63.4233 97.0386 62.9993C98.8503 62.8275 100.612 63.013 102.308 63.6808C105.581 64.9694 107.62 67.9532 107.659 71.4816C107.698 75.1705 105.774 78.1422 102.415 79.5083C99.527 80.6828 96.6115 80.6639 93.7804 79.3863C90.8572 78.067 89.1756 75.762 88.828 72.5356C88.7922 72.2025 88.7417 71.871 88.5841 71.4241ZM94.139 73.1565C94.2122 73.3669 94.2619 73.5893 94.3622 73.7859C95.3022 75.6266 96.7709 76.3798 98.9233 76.1366C100.603 75.9469 101.946 74.767 102.368 72.9366C102.539 72.1949 102.569 71.3695 102.441 70.62C102.076 68.4774 100.469 67.1088 98.4097 67.0432C96.1981 66.9728 94.614 68.2029 94.0353 70.4171C93.8172 71.2515 93.8196 72.0726 94.139 73.1565Z" fill="white"/>
<path d="M109.388 68.4782C110.844 65.1174 113.454 63.5233 116.827 63.035C118.446 62.8006 120.066 62.8976 121.64 63.4016C122.585 63.7044 123.333 64.2516 123.733 65.1963C124.024 65.8855 124.144 66.5964 123.905 67.3221C123.637 68.1358 123.238 68.858 122.275 69.2697C122.044 69.0126 121.801 68.7341 121.549 68.4652C120.265 67.0989 118.703 66.7665 116.951 67.2969C115.207 67.8243 114.294 69.1037 114.054 70.8417C113.957 71.5426 113.999 72.3067 114.171 72.9932C114.885 75.8338 117.642 76.6878 119.994 75.8973C120.204 75.8267 120.401 75.7117 120.598 75.6055C122.451 74.6047 124.23 74.7384 126.04 75.9828C125.919 76.2856 125.84 76.5992 125.68 76.8634C124.865 78.2099 123.659 79.1181 122.209 79.6421C119.229 80.7187 116.253 80.6296 113.429 79.1658C110.178 77.4805 108.673 74.7136 108.883 71.0607C108.931 70.2335 109.181 69.418 109.388 68.4782Z" fill="white"/>
<path d="M135.789 76.3746C137.366 76.7712 137.642 77.9745 137.984 79.2156C136.652 80.2157 135.147 80.3084 133.646 80.332C132.984 80.3425 132.305 80.2169 131.658 80.0563C129.507 79.5229 128.135 78.1892 127.705 75.9843C127.578 75.3305 127.516 74.6559 127.503 73.9895C127.475 72.4243 127.499 70.8583 127.492 69.2927C127.489 68.7397 127.46 68.1867 127.444 67.669C126.661 67.1649 125.819 67.6116 125.107 67.2866C124.687 65.0689 125.124 64.3166 127.336 63.4979C127.7 62.2797 127.335 60.9767 127.568 59.734C130.331 58.9885 131.905 60.0986 132.767 63.4288C134.023 63.8475 135.384 63.4016 136.794 63.7225C136.816 64.3129 136.846 64.9115 136.858 65.5105C136.868 66.0659 136.86 66.6217 136.86 67.2366C135.507 67.6404 134.145 67.1986 132.796 67.5346C132.729 67.7881 132.601 68.0496 132.598 68.3125C132.578 70.2134 132.58 72.1145 132.583 74.0155C132.583 74.2372 132.611 74.4622 132.654 74.6801C132.846 75.6488 133.341 76.1461 134.323 76.2953C134.761 76.3618 135.213 76.3379 135.789 76.3746Z" fill="white"/>
<path d="M26.744 68.3569C26.7447 66.0135 26.6956 63.8364 26.7605 61.6628C26.8227 59.5782 27.8495 58.0626 29.7905 57.2495C30.3373 57.0204 30.9545 56.9596 31.4237 56.8489C31.8747 57.1054 31.8073 57.4086 31.8075 57.6723C31.8121 63.4181 31.7657 69.1644 31.8328 74.9094C31.8609 77.3109 30.1929 79.6437 27.4871 80.0251C27.3274 80.0476 27.1594 80.0113 26.8723 79.9956C26.8295 79.5745 26.7511 79.154 26.7498 78.7333C26.7397 75.3304 26.744 71.9276 26.744 68.3569Z" fill="white"/>
<path d="M157.299 76.7339C157.299 73.1596 157.299 69.7506 157.3 66.3416C157.3 65.9504 157.282 65.558 157.306 65.1682C157.375 64.012 158.02 63.3045 159.189 63.2177C160.072 63.1522 160.964 63.2048 161.939 63.2048C162.051 63.7291 162.15 64.1961 162.274 64.775C162.598 64.5988 162.829 64.4772 163.057 64.3488C163.444 64.1296 163.808 63.8467 164.22 63.6948C166.001 63.0383 167.819 64.2111 167.984 66.1049C168.017 66.4887 167.989 66.8778 167.989 67.3489C167.602 67.4016 167.289 67.4509 166.974 67.4854C166.587 67.528 166.195 67.5401 165.81 67.5972C163.994 67.8663 162.908 68.9352 162.516 70.702C162.396 71.2413 162.355 71.807 162.35 72.3613C162.331 74.373 162.347 76.385 162.339 78.3968C162.337 78.8894 162.298 79.3819 162.272 79.9527C160.665 80.203 159.119 80.0364 157.499 80.0815C157.424 79.7012 157.321 79.3915 157.309 79.0785C157.282 78.3529 157.3 77.6258 157.299 76.7339Z" fill="white"/>
<path d="M36.804 57.574C38.4447 58.7096 39.1794 60.1771 39.1744 62.0561C39.1591 67.7537 39.1707 73.4514 39.165 79.149C39.1647 79.4185 39.099 79.688 39.065 79.9479C36.4146 79.9842 34.3178 78.1416 34.1336 75.671C34.117 75.4487 34.1282 75.2243 34.1282 75.0008C34.128 69.3032 34.1281 63.6056 34.1281 57.908C34.1281 57.6345 34.1281 57.361 34.1281 56.9995C35.1173 56.7485 35.9107 57.1115 36.804 57.574Z" fill="white"/>
<path d="M88.1708 67.2877C87.9162 67.23 87.794 67.0719 88.0018 66.7595C88.1118 66.8787 88.1569 67.052 88.1708 67.2877Z" fill="white"/>
<path d="M67.2516 23.9389C67.2356 23.9402 67.2677 23.9375 67.2516 23.9389V23.9389Z" fill="#FAFCFE"/>
<path d="M57.6024 20.3634C57.5306 20.3162 57.4129 20.292 57.3848 20.2283C57.3587 20.1691 57.4282 20.0678 57.4555 19.9851C57.4962 20.0687 57.5368 20.1524 57.5807 20.3093C57.584 20.3825 57.5957 20.3692 57.6024 20.3634Z" fill="#FAFCFE"/>
</svg>
