<svg width="20" height="20" viewBox="0 0 20 20" fill="none" xmlns="http://www.w3.org/2000/svg">
<path d="M12.9167 8.33318H12.5V7.91651C12.5 6.76734 11.5658 5.83318 10.4167 5.83318H9.58333C8.43417 5.83318 7.5 6.76734 7.5 7.91651V8.33318H7.08333C5.93417 8.33318 5 9.26734 5 10.4165V11.2498C5 12.399 5.93417 13.3332 7.08333 13.3332H7.5V13.7498C7.5 14.899 8.43417 15.8332 9.58333 15.8332H10.4167C11.5658 15.8332 12.5 14.899 12.5 13.7498V13.3332H12.9167C14.0658 13.3332 15 12.399 15 11.2498V10.4165C15 9.26734 14.0658 8.33318 12.9167 8.33318ZM13.3333 11.2498C13.3333 11.479 13.1458 11.6665 12.9167 11.6665H11.6667C11.2058 11.6665 10.8333 12.039 10.8333 12.4998V13.7498C10.8333 13.979 10.6458 14.1665 10.4167 14.1665H9.58333C9.35417 14.1665 9.16667 13.979 9.16667 13.7498V12.4998C9.16667 12.039 8.79417 11.6665 8.33333 11.6665H7.08333C6.85417 11.6665 6.66667 11.479 6.66667 11.2498V10.4165C6.66667 10.1873 6.85417 9.99984 7.08333 9.99984H8.33333C8.79417 9.99984 9.16667 9.62734 9.16667 9.16651V7.91651C9.16667 7.68734 9.35417 7.49984 9.58333 7.49984H10.4167C10.6458 7.49984 10.8333 7.68734 10.8333 7.91651V9.16651C10.8333 9.62734 11.2058 9.99984 11.6667 9.99984H12.9167C13.1458 9.99984 13.3333 10.1873 13.3333 10.4165V11.2498ZM18.3333 4.76984V1.66651C18.3333 1.20568 17.9608 0.833177 17.5 0.833177C17.0392 0.833177 16.6667 1.20568 16.6667 1.66651V3.63901L12.3308 0.712344C10.915 -0.242656 9.085 -0.242656 7.66917 0.712344L1.83667 4.64901C0.686667 5.42401 0 6.71484 0 8.10318V15.8332C0 18.1307 1.86917 19.9998 4.16667 19.9998H15.8333C18.1308 19.9998 20 18.1307 20 15.8332V8.10318C20 6.78568 19.38 5.55401 18.3333 4.76984ZM18.3333 15.8332C18.3333 17.2115 17.2117 18.3332 15.8333 18.3332H4.16667C2.78833 18.3332 1.66667 17.2115 1.66667 15.8332V8.10318C1.66667 7.27068 2.07833 6.49568 2.76833 6.03151L8.60167 2.09484C9.02667 1.80734 9.51333 1.66401 10 1.66401C10.4867 1.66401 10.9733 1.80734 11.3983 2.09484L17.2325 6.03151C17.9217 6.49651 18.3333 7.27068 18.3333 8.10318V15.8332Z" fill="#1E7DC0"/>
</svg>
