<svg width="21" height="14" viewBox="0 0 21 14" fill="none" xmlns="http://www.w3.org/2000/svg">
<path d="M0 0H20.8294V14H0V0Z" fill="#D6D4D1"/>
<path d="M0.177002 0.17041H20.666V4.78002H0.177002V0.17041Z" fill="#CD0E26"/>
<path d="M0.177002 9.21948H20.666V13.8292H0.177002V9.21948Z" fill="black"/>
<path d="M0.177979 4.78052H20.6659V9.21962H0.177979V4.78052Z" fill="white"/>
<path d="M9.44083 8.37094L9.55023 8.40738C9.55175 8.40799 9.55333 8.40839 9.55496 8.40858C9.55789 8.4085 9.56072 8.40749 9.56303 8.4057C9.56535 8.4039 9.56704 8.40142 9.56785 8.3986C9.56903 8.39525 9.56883 8.39157 9.5673 8.38837C9.56577 8.38516 9.56303 8.3827 9.55968 8.38151L9.44968 8.34507C9.44802 8.34449 9.44626 8.34424 9.4445 8.34434C9.44274 8.34444 9.44101 8.34488 9.43943 8.34565C9.43784 8.34642 9.43642 8.34749 9.43524 8.3488C9.43407 8.35012 9.43317 8.35165 9.43259 8.35332C9.43191 8.35501 9.43159 8.35682 9.43165 8.35864C9.4317 8.36047 9.43213 8.36226 9.4329 8.36391C9.43367 8.36556 9.43478 8.36704 9.43614 8.36824C9.43751 8.36945 9.4391 8.37037 9.44083 8.37094ZM9.60204 8.41982L9.73266 8.45454C9.73386 8.45514 9.73499 8.45514 9.73619 8.45514C9.73923 8.45513 9.74218 8.45408 9.74455 8.45215C9.74691 8.45023 9.74854 8.44755 9.74916 8.44457C9.75148 8.43744 9.74676 8.42987 9.73971 8.428L9.60917 8.39328C9.60204 8.39103 9.59447 8.39568 9.59267 8.40333C9.59027 8.41045 9.595 8.41802 9.60204 8.41982ZM10.122 8.4939L10.1226 8.4933L10.2567 8.48326C10.2644 8.48266 10.2702 8.47621 10.269 8.46856C10.269 8.46091 10.262 8.45446 10.2549 8.45559L10.1208 8.46624C10.1189 8.4663 10.1171 8.46674 10.1155 8.46751C10.1138 8.46829 10.1124 8.4694 10.1111 8.47077C10.1099 8.47213 10.109 8.47373 10.1084 8.47547C10.1079 8.4772 10.1076 8.47904 10.1078 8.48086C10.1079 8.48806 10.1144 8.4939 10.122 8.4939ZM9.93204 8.48738L10.0644 8.4933V8.4939C10.0662 8.49395 10.068 8.49364 10.0697 8.49298C10.0714 8.49232 10.073 8.49134 10.0743 8.49007C10.0756 8.48881 10.0766 8.4873 10.0774 8.48563C10.0781 8.48395 10.0785 8.48215 10.0785 8.48033C10.0785 8.47269 10.0726 8.46624 10.0655 8.46624L9.93376 8.45979H9.93256C9.92544 8.45979 9.91959 8.46556 9.91899 8.47328C9.91883 8.47509 9.91905 8.4769 9.91964 8.47861C9.92023 8.48032 9.92116 8.48189 9.92239 8.48322C9.92362 8.48455 9.92511 8.4856 9.92677 8.48632C9.92844 8.48704 9.93023 8.4874 9.93204 8.48738ZM11.3948 8.37094L11.2854 8.40738C11.284 8.40812 11.2824 8.40853 11.2807 8.40858C11.2749 8.40858 11.2701 8.40445 11.2677 8.3986C11.2672 8.39691 11.267 8.39511 11.2671 8.39333C11.2672 8.39154 11.2677 8.3898 11.2685 8.38821C11.2693 8.38661 11.2705 8.3852 11.2718 8.38405C11.2732 8.3829 11.2748 8.38204 11.2765 8.38151L11.3865 8.34507C11.39 8.34395 11.3937 8.34418 11.397 8.34571C11.4003 8.34724 11.4029 8.34996 11.4042 8.35332C11.4052 8.35689 11.4049 8.36074 11.4031 8.36403C11.4014 8.36732 11.3984 8.3698 11.3948 8.37094ZM11.2336 8.41982L11.1042 8.45454C11.1025 8.45514 11.1019 8.45514 11.1007 8.45514C11.0941 8.45514 11.0889 8.45102 11.0866 8.44457C11.0859 8.44097 11.0867 8.43726 11.0887 8.43419C11.0906 8.43112 11.0937 8.4289 11.0972 8.428L11.2268 8.39328C11.2286 8.39275 11.2305 8.3926 11.2323 8.39282C11.2342 8.39305 11.236 8.39365 11.2376 8.39459C11.2392 8.39553 11.2406 8.39679 11.2417 8.39829C11.2428 8.3998 11.2436 8.40151 11.244 8.40333C11.2447 8.40688 11.2441 8.4106 11.2422 8.41368C11.2402 8.41676 11.2372 8.41897 11.2336 8.41982ZM10.7148 8.4939H10.7136L10.5796 8.48326C10.5713 8.48266 10.566 8.47621 10.5666 8.46856C10.5672 8.46091 10.5742 8.45446 10.5818 8.45559L10.7154 8.46624C10.7231 8.46684 10.7289 8.47328 10.7277 8.48086C10.7277 8.48256 10.7274 8.48426 10.7268 8.48585C10.7261 8.48743 10.7252 8.48888 10.724 8.49009C10.7228 8.49131 10.7214 8.49227 10.7198 8.49293C10.7182 8.49358 10.7165 8.49392 10.7148 8.4939ZM10.9043 8.48738L10.7719 8.4933L10.7711 8.4939C10.7675 8.49378 10.7641 8.49233 10.7615 8.48982C10.7589 8.48732 10.7573 8.48394 10.7571 8.48033C10.7571 8.47269 10.7629 8.46624 10.7706 8.46624L10.9031 8.45979C10.9108 8.45979 10.9172 8.46556 10.9172 8.47328C10.9173 8.48093 10.9113 8.48738 10.9043 8.48738ZM10.4214 7.53452H10.422H10.4226C11.046 7.00576 11.0148 6.32523 11.0148 6.31818C11.0148 6.31113 11.0091 6.30581 11.0019 6.30521C10.669 6.28811 10.4513 6.15585 10.422 6.13695C10.3925 6.15577 10.1749 6.28811 9.84206 6.30521C9.83493 6.30581 9.82909 6.31113 9.82909 6.31818C9.82849 6.32515 9.7979 7.00583 10.4214 7.53452ZM10.1966 6.26824C10.3102 6.2312 10.3878 6.18884 10.422 6.16882C10.4555 6.18884 10.5337 6.2312 10.6466 6.26824V7.26107C10.5795 7.34711 10.5043 7.42651 10.422 7.49816C10.3397 7.42629 10.2642 7.34692 10.1966 7.26107V6.26824Z" fill="#BF920C"/>
<path d="M11.8243 5.92982C11.8137 5.79516 11.7667 5.73577 11.7643 5.73337C11.7627 5.73105 11.5845 5.53752 11.289 5.73457C11.0926 5.86632 10.9085 5.89158 10.8144 5.89451C10.7891 5.85274 10.7598 5.78863 10.7384 5.69281C10.6926 5.48399 10.7103 5.2364 10.7103 5.23288C10.7103 5.23055 10.7103 5.02878 10.5373 4.98349C10.4495 4.96114 10.3978 4.95117 10.3642 4.95117C10.336 4.95117 10.3171 4.95882 10.3042 4.97464C10.2617 4.96028 10.2173 4.95254 10.1724 4.9517C10.1148 4.9517 10.0725 4.96752 10.0454 4.99991C10.0154 5.03635 10.0066 5.09221 10.0207 5.16577C10.0219 5.17169 10.0255 5.17574 10.0307 5.17694C10.0334 5.17753 10.0361 5.17741 10.0387 5.17658C10.0413 5.17575 10.0436 5.17424 10.0454 5.17222C10.0454 5.17162 10.0807 5.12813 10.1242 5.12813C10.1678 5.12813 10.2077 5.17342 10.2407 5.25814C10.3102 5.43637 10.1301 5.75039 10.0361 5.89511C9.94426 5.89278 9.75613 5.86984 9.55496 5.73517C9.25968 5.53752 9.08145 5.73105 9.07965 5.73337C9.07733 5.73577 9.02972 5.79516 9.01967 5.92982C9.00902 6.06104 8.91672 8.41079 8.91612 8.43426C8.91578 8.4369 8.91628 8.43958 8.91756 8.44191C8.91884 8.44425 8.92083 8.44611 8.92324 8.44724C8.92505 8.44821 8.92705 8.44879 8.92909 8.44896C8.93256 8.44905 8.93592 8.44778 8.93847 8.44544L9.72134 7.74429L9.69367 7.84079C9.69015 7.84364 9.68955 7.84784 9.69015 7.85189L9.55608 8.31422C9.53559 8.30933 9.51551 8.30283 9.49602 8.2948C9.4818 8.28824 9.4664 8.28459 9.45074 8.28408C9.44185 8.28377 9.43301 8.28546 9.42486 8.28902C9.41672 8.29257 9.40947 8.2979 9.40365 8.30462C9.38543 8.30342 9.33249 8.30342 9.2995 8.34114C9.27011 8.37345 9.26418 8.42399 9.28195 8.4911C9.28195 8.49282 9.28315 8.4941 9.28488 8.49582C9.28195 8.50407 9.27895 8.51239 9.27835 8.52177C9.24304 8.53346 9.13724 8.57343 9.13724 8.63994C9.13724 8.64121 9.12427 8.74708 9.22189 8.804C9.21777 8.81989 9.21425 8.84928 9.23014 8.87988C9.25309 8.92284 9.30662 8.95163 9.38775 8.9658C9.43364 8.97345 9.47368 8.9811 9.51244 8.98875C9.64779 9.01462 9.76416 9.03696 10.0219 9.04341C10.176 9.04753 10.3159 9.04813 10.4218 9.04858C10.5551 9.04802 10.6884 9.04629 10.8217 9.04341C11.0795 9.03689 11.1958 9.01454 11.3312 8.98815C11.3701 8.9811 11.41 8.97345 11.4558 8.96513C11.5369 8.95156 11.5905 8.92284 11.6136 8.8792C11.6295 8.84921 11.6253 8.81982 11.6217 8.80392C11.7193 8.74686 11.7064 8.64099 11.7064 8.63986C11.7064 8.57275 11.6005 8.53339 11.5652 8.52169C11.5639 8.51285 11.5618 8.50416 11.5588 8.49575C11.56 8.4941 11.5616 8.49282 11.5616 8.49102C11.5792 8.42339 11.5734 8.37338 11.544 8.34106C11.5111 8.30342 11.4581 8.30342 11.44 8.30455C11.4342 8.29773 11.427 8.29229 11.4188 8.28863C11.4106 8.28498 11.4018 8.28319 11.3928 8.2834C11.3792 8.2834 11.364 8.2876 11.3475 8.29457C11.3278 8.30267 11.3075 8.30917 11.2868 8.31399L11.1535 7.85166C11.1535 7.84754 11.1535 7.84341 11.1498 7.84056L11.1223 7.74406L11.9049 8.44461C11.9074 8.44684 11.9105 8.4481 11.9138 8.44814C11.9154 8.44814 11.918 8.44814 11.9196 8.44694C11.9221 8.44581 11.9241 8.44397 11.9255 8.44165C11.9269 8.43934 11.9275 8.43666 11.9274 8.43396C11.9273 8.4108 11.835 6.06097 11.8243 5.92982ZM10.4186 5.05809C10.4229 5.05801 10.4272 5.0588 10.4311 5.06039C10.4351 5.06198 10.4388 5.06436 10.4418 5.06738C10.4449 5.07039 10.4473 5.07399 10.449 5.07796C10.4506 5.08193 10.4515 5.08619 10.4514 5.09049C10.4513 5.09912 10.4478 5.10737 10.4417 5.11344C10.4355 5.11951 10.4272 5.1229 10.4186 5.12288C10.4101 5.12276 10.402 5.11929 10.396 5.11322C10.3901 5.10716 10.3868 5.09899 10.3868 5.09049C10.3868 5.07227 10.401 5.05809 10.4186 5.05809ZM10.268 5.2529C10.2786 5.2364 10.3068 5.20993 10.3703 5.24697C10.3703 5.24697 10.3327 5.11171 10.1839 5.05465C10.1004 5.02293 10.0657 5.05757 10.051 5.09401C10.0545 5.06634 10.0681 5.0287 10.1151 5.02465C10.1903 5.01821 10.2221 5.04115 10.2221 5.04115C10.2221 5.04115 10.3139 5.11935 10.3692 5.11935C10.3692 5.11935 10.3845 5.15879 10.425 5.15227C10.4656 5.14522 10.4667 5.11291 10.4667 5.11291C10.4667 5.11291 10.5304 5.04527 10.6551 5.11351C10.682 5.16997 10.6827 5.22815 10.6827 5.23175C10.682 5.23408 10.6645 5.48586 10.7115 5.69881C10.7398 5.82702 10.782 5.90231 10.8128 5.94287L10.6939 5.90523C10.6927 5.90403 10.6927 5.90223 10.691 5.90111C10.6693 5.88349 10.621 5.66762 10.5874 5.46937C10.5868 5.4658 10.5848 5.46263 10.5818 5.46054C10.5789 5.45845 10.5752 5.4576 10.5716 5.45819C10.5645 5.45939 10.5586 5.46644 10.5605 5.47409C10.5757 5.56467 10.6257 5.84465 10.6657 5.91108C10.6644 5.91409 10.6644 5.91744 10.6657 5.92045C10.6845 5.96109 10.6845 5.97931 10.6845 5.98516C10.6398 5.97519 10.5586 5.91985 10.5269 5.89578C10.511 5.86227 10.5008 5.60876 10.4986 5.45407C10.4986 5.45034 10.4971 5.44678 10.4944 5.44414C10.4918 5.44151 10.4882 5.44001 10.4845 5.43997C10.4765 5.44057 10.4704 5.44642 10.4704 5.45407C10.4716 5.51938 10.4781 5.83047 10.4999 5.90163L10.428 5.97459L10.3693 5.89166C10.4104 5.81465 10.4328 5.48579 10.4352 5.44702C10.4352 5.43937 10.4292 5.43232 10.4222 5.43232C10.4151 5.43292 10.4081 5.43765 10.4069 5.44522C10.3975 5.59991 10.3728 5.84285 10.3433 5.88281L10.2069 5.98164L10.2339 5.88514C10.3069 5.78519 10.354 5.46404 10.3557 5.44987C10.356 5.44805 10.3559 5.4462 10.3554 5.44441C10.355 5.44263 10.3542 5.44095 10.3531 5.43947C10.352 5.438 10.3506 5.43675 10.3491 5.43581C10.3475 5.43486 10.3457 5.43424 10.3439 5.43397C10.3369 5.43337 10.3293 5.4381 10.3281 5.44575C10.314 5.54457 10.2657 5.80865 10.2069 5.87569C10.167 5.92038 10.077 5.94744 10.0275 5.95922C10.1022 5.85042 10.3474 5.47102 10.268 5.2529ZM9.71804 7.85496L9.8692 7.70852L9.91629 7.88083C9.91749 7.88615 9.92154 7.88968 9.92687 7.8908C9.93159 7.89208 9.93691 7.8896 9.93984 7.88608L10.0492 7.75014L10.0998 7.98715L9.9852 8.15661L9.92634 7.98655C9.92554 7.98411 9.92409 7.98194 9.92213 7.98029C9.92016 7.97863 9.91778 7.97756 9.91524 7.97718C9.90992 7.97658 9.9046 7.9789 9.90227 7.9831L9.79167 8.14604L9.71407 7.87078L9.71804 7.85496ZM10.9874 8.37435C10.9797 8.37608 10.9751 8.37668 10.9751 8.37668C10.9704 8.37728 10.9669 8.37788 10.9633 8.37848L10.8915 8.25603C10.8886 8.25131 10.8834 8.24899 10.8774 8.24899C10.8727 8.24959 10.868 8.25371 10.8663 8.25903L10.8257 8.39377C10.7925 8.39641 10.7591 8.39799 10.7257 8.3985L10.6904 8.24149L10.7362 8.02434L10.8515 8.19492C10.8531 8.19697 10.8552 8.19858 10.8576 8.19962C10.8599 8.20065 10.8625 8.20108 10.8651 8.20085C10.8676 8.20055 10.8699 8.19956 10.8719 8.198C10.8739 8.19644 10.8754 8.19436 10.8762 8.192L10.9349 8.02142L11.0421 8.18083L10.9874 8.37435ZM11.062 8.21082L11.1527 8.34436C11.1009 8.35493 11.0514 8.36378 11.0173 8.36963L11.062 8.21082ZM10.9332 8.3826C10.9066 8.3856 10.8809 8.38905 10.855 8.39145L10.8832 8.29735L10.9332 8.3826ZM9.978 8.25911C9.97706 8.25658 9.9755 8.25433 9.97345 8.25257C9.97141 8.25081 9.96895 8.24961 9.96631 8.24906C9.96363 8.249 9.96099 8.24961 9.95862 8.25085C9.95624 8.25208 9.95422 8.25389 9.95273 8.25611L9.88098 8.37855C9.87707 8.37784 9.87314 8.37724 9.8692 8.37675L9.85691 8.37503L9.80217 8.18098L9.90924 8.02157L9.9681 8.19215C9.9693 8.19687 9.97395 8.2004 9.9792 8.201C9.98178 8.20125 9.98438 8.20084 9.98676 8.1998C9.98913 8.19876 9.9912 8.19714 9.99277 8.19507L10.108 8.02502L10.1539 8.24156L10.1186 8.39857C10.0852 8.39811 10.0518 8.39654 10.0186 8.39385L9.978 8.25911ZM9.98925 8.39152C9.96331 8.3892 9.93751 8.38628 9.91097 8.38268L9.96098 8.29742L9.98925 8.39152ZM9.82692 8.3697C9.78172 8.36189 9.73661 8.35364 9.69157 8.34496L9.78155 8.21082L9.82692 8.3697ZM10.1304 7.31742C10.1586 7.35334 10.1897 7.38918 10.2227 7.4245L10.0821 7.60265L10.0586 7.38558L10.1304 7.31742ZM10.0545 7.35101L10.0369 7.18628C10.0599 7.22272 10.0857 7.25924 10.1139 7.29568L10.0545 7.35101ZM10.2416 7.44504C10.2645 7.46851 10.2892 7.49205 10.3145 7.51552L10.2633 7.74496L10.2598 7.74969L10.1863 7.515L10.2416 7.44504ZM10.1292 7.99323L10.2474 7.81792L10.168 8.17611L10.1292 7.99323ZM10.1675 8.3068L10.2151 8.37031L10.3004 8.305L10.3798 7.74039L10.3516 8.30327L10.4222 8.40157V8.40217V8.40097L10.4927 8.30327L10.4645 7.74039L10.5434 8.305L10.6292 8.3697L10.6764 8.3068L10.6974 8.39857C10.6598 8.39797 10.6309 8.39565 10.6099 8.39445C10.5894 8.39272 10.5765 8.39152 10.5671 8.39272C10.5446 8.39572 10.5258 8.40742 10.5153 8.42564C10.5096 8.43552 10.5064 8.44664 10.5059 8.45803H10.3389C10.3383 8.44666 10.3351 8.43559 10.3295 8.42564C10.3241 8.41653 10.3165 8.40885 10.3075 8.4032C10.2985 8.39756 10.2883 8.39412 10.2778 8.39317C10.2683 8.39152 10.2548 8.39257 10.2342 8.39445C10.2131 8.39617 10.1849 8.39797 10.1472 8.39857L10.1675 8.3068ZM10.7856 7.38565L10.7622 7.60273L10.6216 7.42457C10.6545 7.38925 10.6851 7.35341 10.7139 7.3175L10.7856 7.38565ZM10.7303 7.2956C10.7586 7.25909 10.7838 7.22265 10.8072 7.18621L10.7891 7.35094L10.7303 7.2956ZM10.6574 7.51507L10.5839 7.74976L10.5804 7.74504L10.5298 7.5156C10.5551 7.49213 10.5798 7.46858 10.6021 7.44511L10.6574 7.51507ZM10.5968 7.81792L10.715 7.99323L10.6761 8.17611L10.5968 7.81792ZM10.7233 7.95559L10.6032 7.77908L10.6785 7.54079L10.7619 7.64606C10.7643 7.64959 10.7678 7.65139 10.7727 7.65139C10.7739 7.65139 10.775 7.65139 10.7762 7.65079C10.7789 7.65004 10.7813 7.64852 10.783 7.64643C10.7848 7.64433 10.7859 7.64175 10.7862 7.63902L10.8115 7.40905L10.9599 7.54904C10.9611 7.55021 10.9626 7.55113 10.9642 7.55174C10.9658 7.55234 10.9675 7.55262 10.9693 7.55256C10.9699 7.55256 10.9705 7.55256 10.9716 7.55196C10.9736 7.55162 10.9755 7.5508 10.9771 7.54957C10.9787 7.54835 10.9801 7.54675 10.9809 7.54491L11.0127 7.48081L11.0833 7.7002C11.0833 7.702 11.0821 7.7038 11.0833 7.70552L11.1102 7.80135L10.9774 7.67186C10.9739 7.66901 10.9686 7.66713 10.9639 7.66901C10.9615 7.66955 10.9593 7.6707 10.9576 7.67235C10.9558 7.67399 10.9545 7.67607 10.9538 7.67838L10.9085 7.84716L10.7985 7.7101C10.7968 7.70812 10.7946 7.70664 10.7921 7.70581C10.7896 7.70498 10.787 7.70483 10.7844 7.70537C10.7818 7.70589 10.7794 7.70718 10.7775 7.70907C10.7756 7.71097 10.7743 7.71339 10.7738 7.71602L10.7233 7.95559ZM10.8397 7.13439C10.8527 7.11145 10.8657 7.08858 10.8786 7.06564L10.9997 7.44272L10.9644 7.51567L10.815 7.37508L10.8404 7.13807C10.841 7.13679 10.8397 7.13567 10.8397 7.13439ZM11.0244 7.42862L10.9974 6.78041C11.0175 6.71862 11.0315 6.66044 11.0427 6.6063L11.0927 7.64209L11.0244 7.42862ZM10.4221 7.57146C9.79685 7.06796 9.79272 6.38031 9.79625 6.27631C10.092 6.28568 10.3468 6.14457 10.4221 6.09868C10.4973 6.14457 10.752 6.28516 11.048 6.27631C11.0509 6.38046 11.0474 7.06796 10.4221 7.57146ZM10.0292 7.37501L9.87985 7.5156L9.84454 7.44264L9.9657 7.06556C9.978 7.08858 9.99097 7.11145 10.0045 7.13432C10.0045 7.13559 10.0033 7.13672 10.0033 7.13784L10.0292 7.37501ZM9.80157 6.60623C9.81274 6.66036 9.82692 6.71855 9.84634 6.78033L9.81979 7.42854L9.75103 7.64209L9.80157 6.60623ZM9.76101 7.70095L9.83156 7.48088L9.86276 7.54499C9.86494 7.54875 9.86853 7.5515 9.87273 7.55264H9.87505C9.87854 7.55274 9.88193 7.55147 9.8845 7.54911L10.0327 7.40912L10.0575 7.63909C10.058 7.64183 10.0593 7.64438 10.0611 7.64645C10.063 7.64852 10.0654 7.65005 10.0681 7.65086C10.0693 7.65146 10.0704 7.65146 10.0716 7.65146C10.0758 7.65146 10.0798 7.64974 10.0822 7.64614L10.1658 7.54094L10.2404 7.77916L10.121 7.95566L10.0704 7.71632C10.0698 7.71373 10.0685 7.71136 10.0666 7.70947C10.0648 7.70759 10.0624 7.70627 10.0598 7.70567C10.0572 7.70512 10.0546 7.70527 10.0521 7.7061C10.0496 7.70693 10.0474 7.70841 10.0457 7.7104L9.93571 7.84746L9.89042 7.67868C9.88968 7.67641 9.88838 7.67436 9.88664 7.67272C9.88489 7.67108 9.88277 7.66991 9.88045 7.66931C9.87808 7.66868 9.87558 7.66867 9.8732 7.66928C9.87082 7.6699 9.86865 7.67112 9.86688 7.67283L9.73401 7.80165L9.76101 7.70582C9.76213 7.70395 9.76101 7.70207 9.76101 7.70095ZM9.69922 7.92087L9.77158 8.17611L9.66218 8.33844C9.63511 8.33319 9.60805 8.32727 9.5833 8.32127L9.69922 7.92087ZM9.41512 8.34496C9.41512 8.34324 9.41984 8.31204 9.45104 8.31204C9.46108 8.31204 9.47218 8.31504 9.48575 8.32029C9.56568 8.35621 9.85278 8.40202 9.86515 8.40382C9.96338 8.41912 10.0528 8.42617 10.131 8.42617C10.1781 8.42617 10.2116 8.42384 10.2363 8.42204C10.2539 8.42024 10.2662 8.41964 10.2746 8.42024C10.2808 8.421 10.2869 8.42313 10.2923 8.42649C10.2977 8.42984 10.3022 8.43434 10.3057 8.43966C10.3139 8.45376 10.3139 8.47318 10.3051 8.49492C10.2998 8.50902 10.2692 8.53256 10.1268 8.53256C10.0822 8.53256 10.0375 8.53024 10.0034 8.52844C9.89522 8.52199 9.76633 8.49665 9.6034 8.46433L9.55578 8.45548C9.46581 8.43794 9.43229 8.40847 9.41984 8.38673C9.40807 8.36551 9.41399 8.34849 9.41512 8.34496ZM9.31989 8.35973C9.33991 8.33731 9.37103 8.33266 9.39045 8.33266C9.38985 8.33431 9.38925 8.33679 9.38865 8.33791C9.38805 8.33911 9.37755 8.36671 9.39517 8.39902C9.39637 8.4003 9.3975 8.40075 9.3975 8.40195C9.37515 8.40967 9.33279 8.42782 9.3046 8.46193C9.29627 8.41619 9.301 8.38148 9.31989 8.35973ZM11.4491 8.3991C11.4667 8.36671 11.4562 8.33911 11.4549 8.33799C11.4548 8.33617 11.4544 8.33439 11.4536 8.33274C11.4725 8.33274 11.5043 8.33746 11.5241 8.35981C11.5429 8.38155 11.5476 8.41627 11.5394 8.46208C11.5112 8.42797 11.469 8.40982 11.4466 8.4021C11.4468 8.4009 11.4479 8.4003 11.4491 8.3991ZM11.5384 8.53256C11.5384 8.53841 11.5426 8.54366 11.5486 8.54546C11.5845 8.55603 11.6797 8.59427 11.6797 8.64196C11.6797 8.64789 11.6903 8.73899 11.5985 8.78548C11.5926 8.789 11.5891 8.79657 11.5926 8.8037C11.5926 8.8049 11.6063 8.83549 11.5891 8.8672C11.5703 8.90132 11.5232 8.92606 11.4515 8.93836C11.4056 8.94601 11.365 8.95426 11.3262 8.96131C11.1927 8.98717 11.0762 9.00959 10.8216 9.01597C10.6885 9.01892 10.5553 9.02065 10.4222 9.02114C10.3163 9.02114 10.1763 9.01994 10.0222 9.01597C9.76805 9.00952 9.65168 8.98702 9.51762 8.96131C9.4787 8.95426 9.43874 8.94661 9.39293 8.93836C9.32117 8.92599 9.27408 8.90132 9.25526 8.8672C9.25016 8.85749 9.24721 8.84679 9.2466 8.83583C9.246 8.82488 9.24775 8.81392 9.25174 8.8037C9.2531 8.80046 9.25326 8.79684 9.25218 8.7935C9.25111 8.79016 9.24888 8.78731 9.24589 8.78548C9.15404 8.73899 9.16468 8.64789 9.16468 8.64196C9.16468 8.59435 9.25938 8.55603 9.29582 8.54546C9.30175 8.54426 9.30587 8.53841 9.30587 8.53256C9.30587 8.46081 9.39877 8.43021 9.41647 8.42482C9.44346 8.45076 9.48823 8.4701 9.55053 8.48255L9.59762 8.49192C9.76228 8.52372 9.8917 8.54958 10.0023 8.55543C10.0364 8.55783 10.0817 8.56016 10.1269 8.56016C10.2516 8.56016 10.3163 8.54254 10.3311 8.5049C10.334 8.49845 10.3352 8.49192 10.3369 8.48548H10.5076C10.5093 8.49192 10.5105 8.49837 10.5134 8.5049C10.5281 8.54254 10.5928 8.55956 10.7175 8.55956C10.7623 8.55956 10.8081 8.55783 10.8422 8.55536C10.9522 8.54951 11.0822 8.52364 11.2468 8.49132L11.2938 8.48248C11.3562 8.47011 11.401 8.45076 11.428 8.42474C11.4455 8.43022 11.5384 8.46081 11.5384 8.53256ZM11.3585 8.32022C11.3715 8.31437 11.3831 8.31137 11.3932 8.31137C11.4244 8.31137 11.4291 8.34316 11.4291 8.34489C11.4305 8.34841 11.4363 8.36536 11.4244 8.38665C11.4114 8.4084 11.3786 8.43719 11.2879 8.45488L11.2409 8.46426C11.0773 8.49665 10.9487 8.52199 10.841 8.52776C10.7999 8.53054 10.7587 8.53195 10.7175 8.53196C10.5754 8.53196 10.5446 8.50895 10.5386 8.49492C10.5305 8.4731 10.5305 8.45376 10.5386 8.43966C10.542 8.43431 10.5466 8.42979 10.552 8.42643C10.5574 8.42307 10.5634 8.42096 10.5698 8.42024C10.5775 8.41964 10.5903 8.42024 10.6081 8.42204C10.6329 8.42369 10.6663 8.42617 10.7133 8.42617C10.7916 8.42617 10.8808 8.41912 10.9786 8.40382C10.9914 8.40202 11.2785 8.35553 11.3585 8.32022ZM11.2609 8.32142C11.2362 8.32734 11.2093 8.33319 11.182 8.33859L11.0726 8.17625L11.1443 7.92102L11.2609 8.32142ZM11.1256 7.85496L11.1303 7.87026L11.0527 8.14611L10.9421 7.98318C10.9398 7.97905 10.9339 7.97673 10.9291 7.97725C10.9265 7.97762 10.9241 7.97863 10.9221 7.98018C10.92 7.98172 10.9184 7.98376 10.9174 7.9861L10.8593 8.15668L10.7446 7.98723L10.7953 7.75029L10.9039 7.88555C10.9069 7.88968 10.9127 7.8914 10.9176 7.89073C10.9201 7.89009 10.9223 7.88885 10.9242 7.88711C10.9261 7.88537 10.9275 7.88318 10.9283 7.88075L10.9755 7.70845L11.1256 7.85496ZM11.7408 8.26083L11.6865 8.21202L11.5873 5.88633L11.429 6.0222L11.5162 8.05913L11.4444 7.99562L11.3619 6.07926L11.2402 6.17869L11.3091 7.87386L11.2373 7.81035L11.1772 6.21513L11.0725 6.25749C11.0712 6.25217 11.0673 6.24864 11.0602 6.24812C10.7421 6.26281 10.468 6.09576 10.422 6.06636C10.3762 6.09636 10.102 6.26341 9.7838 6.24872C9.77615 6.24872 9.7727 6.25224 9.7715 6.25757L9.66683 6.2158L9.60685 7.81042L9.53509 7.87393L9.60385 6.17876L9.48215 6.07934L9.39975 7.9957L9.32799 8.05981L9.41504 6.02288L9.25623 5.88641L9.15748 8.2121L9.10335 8.26091L9.2039 5.84809L9.04801 5.92398C9.05866 5.80513 9.10035 5.75159 9.10035 5.75159C9.10215 5.74987 9.26388 5.57396 9.53921 5.75804C9.73686 5.88978 9.91914 5.91805 10.0186 5.92218C9.99855 5.95277 9.98573 5.97099 9.98453 5.97159C9.98277 5.97375 9.98181 5.97645 9.98181 5.97924C9.98181 5.98202 9.98277 5.98472 9.98453 5.98688C9.98685 5.99213 9.9927 5.99453 9.99802 5.99333C10.0039 5.99273 10.1221 5.97211 10.1951 5.92218L10.1692 6.01275C10.1686 6.0156 10.1688 6.01857 10.1698 6.02129C10.1708 6.02401 10.1727 6.02637 10.1751 6.02805C10.1774 6.02948 10.18 6.0303 10.1828 6.03045C10.1857 6.03045 10.188 6.02925 10.1904 6.02745L10.3504 5.91213L10.4151 6.00391C10.4162 6.00571 10.4178 6.00719 10.4196 6.00822C10.4215 6.00924 10.4236 6.00977 10.4257 6.00975C10.4298 6.01035 10.4334 6.00855 10.4364 6.00563L10.5175 5.9227C10.547 5.94504 10.6387 6.00855 10.6893 6.01388C10.6916 6.01388 10.694 6.01388 10.6963 6.01268C10.6986 6.01148 10.7046 6.00795 10.7087 5.99798C10.7139 5.98388 10.7116 5.96327 10.7022 5.9368L10.8551 5.98501C10.861 5.98681 10.8681 5.98381 10.8716 5.97796C10.8739 5.97204 10.8728 5.96439 10.8669 5.96034C10.8669 5.96034 10.8522 5.94857 10.8328 5.9221C10.934 5.91618 11.1122 5.88678 11.3045 5.75737C11.5797 5.57329 11.7421 5.74972 11.7438 5.75144C11.7438 5.75144 11.7856 5.80498 11.796 5.92383L11.6403 5.84794L11.7408 8.26083Z" fill="#BF920C"/>
<path d="M9.65743 8.67559C9.63276 8.69606 9.62804 8.68669 9.62804 8.68669C9.62804 8.68669 9.61095 8.69786 9.62444 8.70903C9.63741 8.7202 9.62624 8.75192 9.62624 8.75192C9.62624 8.75192 9.61507 8.76369 9.57975 8.74839C9.54384 8.7337 9.56618 8.69486 9.56618 8.69486L9.58208 8.636C9.58208 8.636 9.5856 8.61485 9.55973 8.639C9.53506 8.66307 9.53506 8.66014 9.52682 8.66014C9.51864 8.66014 9.51272 8.66539 9.52269 8.67956C9.53274 8.69366 9.52097 8.72725 9.52097 8.72725C9.52097 8.72725 9.4921 8.7325 9.47388 8.71488C9.45566 8.69778 9.49922 8.62265 9.49922 8.62265L9.52269 8.54092C9.52269 8.54092 9.52682 8.52623 9.51444 8.52728C9.51444 8.52728 9.46803 8.54849 9.45858 8.5455C9.44921 8.54257 9.41509 8.5326 9.41629 8.55487C9.41749 8.57721 9.44869 8.57429 9.44869 8.57429L9.4834 8.55967L9.46106 8.64897C9.46106 8.64897 9.38045 8.6408 9.37461 8.70483C9.37461 8.70483 9.36688 8.72837 9.39867 8.73542C9.43047 8.74247 9.62924 8.79428 9.62924 8.79428C9.62924 8.79428 9.65039 8.80021 9.65743 8.77314C9.66456 8.74547 9.68338 8.68076 9.68338 8.68076C9.68338 8.68076 9.68338 8.65549 9.65743 8.67559ZM9.42574 8.7172C9.42044 8.71716 9.41536 8.71504 9.4116 8.7113C9.40784 8.70756 9.40571 8.70249 9.40565 8.69718C9.40584 8.69197 9.40804 8.68703 9.41178 8.6834C9.41552 8.67977 9.42053 8.67772 9.42574 8.67769C9.43631 8.67769 9.44576 8.68654 9.44576 8.69718C9.4457 8.70247 9.44358 8.70753 9.43983 8.71127C9.43609 8.71502 9.43103 8.71714 9.42574 8.7172ZM10.8791 8.74607C10.8615 8.77314 10.855 8.76617 10.855 8.76617C10.855 8.76617 10.8421 8.78206 10.858 8.78851C10.8739 8.79496 10.8732 8.82855 10.8732 8.82855C10.8732 8.82855 10.8668 8.84317 10.828 8.84025C10.7889 8.83672 10.7983 8.79323 10.7983 8.79323L10.7954 8.73212C10.7954 8.73212 10.7911 8.71098 10.7749 8.7421C10.7584 8.77329 10.7574 8.77029 10.7502 8.77269C10.7421 8.77509 10.7385 8.78214 10.7525 8.79211C10.7662 8.80268 10.7656 8.8386 10.7656 8.8386C10.7656 8.8386 10.7396 8.85209 10.7171 8.84152C10.6937 8.83087 10.7124 8.7457 10.7124 8.7457L10.7089 8.66037C10.7089 8.66037 10.7076 8.64567 10.6964 8.65039C10.6964 8.65039 10.6588 8.68511 10.6488 8.68511C10.6394 8.68511 10.6035 8.68631 10.6111 8.70686C10.6194 8.728 10.6488 8.71503 10.6488 8.71503L10.677 8.69103L10.6835 8.78281C10.6835 8.78281 10.6053 8.80043 10.6194 8.86282C10.6194 8.86282 10.6194 8.88741 10.652 8.88388C10.6845 8.88096 10.889 8.86799 10.889 8.86799C10.889 8.86799 10.9113 8.86679 10.9094 8.8386C10.9077 8.8104 10.9047 8.7433 10.9047 8.7433C10.9047 8.7433 10.8972 8.71908 10.8791 8.74607ZM10.6715 8.85839C10.6614 8.86192 10.6504 8.85607 10.6467 8.84549C10.6432 8.83552 10.6491 8.82428 10.6598 8.82075C10.6622 8.81991 10.6648 8.81956 10.6674 8.81973C10.6699 8.8199 10.6724 8.82058 10.6748 8.82173C10.6771 8.82288 10.6791 8.82448 10.6808 8.82644C10.6825 8.8284 10.6837 8.83067 10.6845 8.83312C10.6861 8.8382 10.6857 8.84371 10.6832 8.84845C10.6808 8.85318 10.6765 8.85676 10.6715 8.85839Z" fill="#BF920C"/>
<path d="M9.40674 8.60777C9.40674 8.61895 9.41559 8.62779 9.42683 8.62779C9.43213 8.62775 9.4372 8.62563 9.44095 8.62189C9.44469 8.61814 9.44681 8.61307 9.44685 8.60777C9.44666 8.60258 9.44447 8.59766 9.44074 8.59405C9.43701 8.59043 9.43203 8.58839 9.42683 8.58835C9.4216 8.58829 9.41656 8.5903 9.4128 8.59393C9.40903 8.59757 9.40686 8.60254 9.40674 8.60777ZM9.44858 8.78203C9.44858 8.7926 9.43973 8.80145 9.42856 8.80145C9.41739 8.80145 9.40914 8.7926 9.40914 8.78203C9.40914 8.77086 9.41731 8.76193 9.42856 8.76193C9.4312 8.76191 9.43382 8.76242 9.43626 8.76342C9.4387 8.76443 9.44092 8.76591 9.44279 8.76778C9.44465 8.76965 9.44612 8.77187 9.44712 8.77432C9.44811 8.77677 9.44861 8.77939 9.44858 8.78203ZM9.46447 8.79605C9.46447 8.80136 9.46658 8.80645 9.47034 8.81021C9.47409 8.81396 9.47918 8.81607 9.48449 8.81607C9.4898 8.81607 9.4949 8.81396 9.49865 8.81021C9.5024 8.80645 9.50451 8.80136 9.50451 8.79605C9.50446 8.79076 9.50233 8.7857 9.49859 8.78196C9.49484 8.77822 9.48979 8.77609 9.48449 8.77603C9.4792 8.77609 9.47414 8.77822 9.4704 8.78196C9.46666 8.7857 9.46453 8.79076 9.46447 8.79605ZM9.59502 8.82424C9.59496 8.82954 9.59283 8.83461 9.58909 8.83836C9.58535 8.84212 9.58029 8.84426 9.575 8.84434C9.57235 8.84436 9.56974 8.84385 9.56729 8.84285C9.56485 8.84184 9.56263 8.84036 9.56077 8.83849C9.5589 8.83662 9.55743 8.8344 9.55644 8.83195C9.55544 8.8295 9.55495 8.82688 9.55498 8.82424C9.55503 8.81895 9.55716 8.81389 9.5609 8.81015C9.56465 8.80641 9.5697 8.80428 9.575 8.80422C9.58557 8.80422 9.59502 8.81367 9.59502 8.82424ZM10.0149 8.63492C9.98844 8.65434 9.98439 8.65546 9.98439 8.65546C9.98439 8.65546 9.98439 8.66318 9.99377 8.67368C10.0032 8.68365 9.97262 8.85319 9.97262 8.85319C9.97262 8.85319 9.94915 8.8855 9.94375 8.84606C9.9385 8.8067 9.92433 8.8097 9.92433 8.8097C9.92433 8.8097 9.90086 8.8097 9.90086 8.7944C9.90086 8.7791 9.92553 8.7785 9.92553 8.7785C9.92553 8.7785 9.94668 8.78615 9.95028 8.76613C9.9526 8.74559 9.91848 8.71912 9.91848 8.71912C9.91848 8.71912 9.91264 8.66738 9.88789 8.66678C9.86382 8.66551 9.84148 8.70607 9.84148 8.70607C9.84148 8.70607 9.79559 8.70322 9.78974 8.72557C9.78322 8.74791 9.82093 8.75969 9.82093 8.75969C9.82093 8.75969 9.83735 8.77431 9.82213 8.78315C9.80684 8.79253 9.79559 8.79313 9.79559 8.79313C9.79559 8.79313 9.75855 8.79665 9.7503 8.77078C9.74205 8.74551 9.73853 8.65614 9.70554 8.73254C9.70554 8.73254 9.70674 8.75601 9.71731 8.77431C9.72901 8.79253 9.69137 8.84306 9.66265 8.84014C9.63378 8.83722 9.63731 8.86128 9.67262 8.85963C9.70794 8.85731 9.72263 8.84899 9.73141 8.83616C9.74085 8.82259 9.75907 8.82087 9.79027 8.82507C9.82206 8.82919 9.82086 8.83512 9.8402 8.81502C9.8597 8.79455 9.8708 8.82679 9.8708 8.82679C9.8708 8.82679 9.87492 8.84321 9.89194 8.84321C9.90896 8.84321 9.91608 8.87965 9.91608 8.87965C9.91608 8.87965 9.91608 8.90792 9.95492 8.90792C9.99376 8.90792 10.0049 8.86023 10.0049 8.86023L10.0331 8.64496C10.0332 8.64481 10.0415 8.61542 10.0149 8.63492ZM9.87027 8.75669C9.86506 8.75665 9.86007 8.7546 9.85634 8.75097C9.85261 8.74733 9.85043 8.7424 9.85025 8.73719C9.85031 8.7319 9.85244 8.72684 9.85618 8.7231C9.85992 8.71936 9.86498 8.71723 9.87027 8.71717C9.87556 8.71723 9.88062 8.71936 9.88436 8.7231C9.88811 8.72684 9.89023 8.7319 9.89029 8.73719C9.8901 8.74239 9.88791 8.74732 9.88418 8.75095C9.88046 8.75458 9.87547 8.75663 9.87027 8.75669ZM10.0855 8.64249C10.1056 8.66836 10.1091 8.67068 10.1091 8.67068C10.1091 8.67068 10.1073 8.67841 10.0955 8.68538C10.0843 8.69303 10.0732 8.82297 10.0732 8.82297C10.0732 8.82297 10.0837 8.86653 10.0654 8.87943C10.0343 8.90177 10.0373 8.84824 10.0373 8.84824L10.0654 8.64706C10.0655 8.64729 10.0655 8.61662 10.0855 8.64249ZM10.6466 8.74731C10.6466 8.75788 10.6373 8.76733 10.6266 8.76733C10.616 8.76733 10.6066 8.75796 10.6066 8.74731C10.6066 8.73614 10.616 8.72722 10.6266 8.72722C10.6373 8.72722 10.6466 8.73599 10.6466 8.74731ZM10.7061 8.91782C10.7061 8.92303 10.7041 8.92805 10.7004 8.9318C10.6968 8.93555 10.6919 8.93774 10.6867 8.93791C10.6813 8.93788 10.6762 8.93575 10.6725 8.93199C10.6687 8.92823 10.6666 8.92314 10.6665 8.91782C10.6665 8.91257 10.6686 8.90753 10.6723 8.90382C10.676 8.90011 10.681 8.89803 10.6863 8.89803C10.6915 8.89803 10.6966 8.90011 10.7003 8.90382C10.704 8.90753 10.7061 8.91257 10.7061 8.91782ZM10.7602 8.91662C10.7602 8.92177 10.7581 8.92668 10.7544 8.93031C10.7508 8.93394 10.7459 8.936 10.7407 8.93604C10.7355 8.9361 10.7305 8.9341 10.7267 8.93046C10.7229 8.92682 10.7207 8.92185 10.7206 8.91662C10.7206 8.90545 10.7294 8.89653 10.7407 8.89653C10.7514 8.8966 10.7602 8.90537 10.7602 8.91662ZM11.4536 8.8013C11.4535 8.80659 11.4513 8.81161 11.4476 8.81534C11.4438 8.81906 11.4388 8.82121 11.4335 8.82132C11.4282 8.82126 11.4231 8.81913 11.4194 8.81539C11.4156 8.81165 11.4135 8.80659 11.4135 8.8013C11.4135 8.79013 11.4221 8.78128 11.4335 8.78128C11.4388 8.78132 11.4439 8.78344 11.4476 8.78718C11.4514 8.79092 11.4536 8.79599 11.4536 8.8013ZM10.5673 8.78833C10.5673 8.78833 10.5644 8.76891 10.5502 8.76778C10.5361 8.76718 10.5255 8.78308 10.5255 8.78308C10.5255 8.78308 10.4677 8.79305 10.4703 8.83601C10.4703 8.83601 10.4527 8.86541 10.4443 8.82664C10.4443 8.82664 10.4608 8.78953 10.4114 8.78953C10.3609 8.78953 10.275 8.78143 10.275 8.78143C10.275 8.78143 10.255 8.77843 10.255 8.75961C10.255 8.74139 10.2385 8.73014 10.2244 8.74139C10.2103 8.75249 10.2174 8.7926 10.2174 8.7926C10.2174 8.7926 10.2221 8.83729 10.1997 8.83729C10.1773 8.83729 10.1668 8.7896 10.1668 8.7896C10.1668 8.7896 10.1574 8.75496 10.138 8.77611C10.1185 8.79725 10.1139 8.8043 10.1221 8.81082C10.1298 8.81674 10.155 8.85019 10.1451 8.87141C10.135 8.89315 10.1145 8.91729 10.0798 8.91729C10.0457 8.91729 10.0586 8.93552 10.078 8.93552C10.0975 8.93552 10.1368 8.94376 10.1586 8.91729C10.1797 8.89083 10.1745 8.87965 10.2138 8.87845C10.2539 8.87778 10.3362 8.88783 10.3362 8.88783C10.3362 8.88783 10.3492 8.88363 10.3603 8.91602C10.3714 8.94886 10.3963 8.94781 10.3963 8.94781C10.3963 8.94781 10.4468 8.94256 10.4468 8.89195L10.5726 8.8849L10.5673 8.78833ZM10.4102 8.86721C10.4102 8.90785 10.3985 8.899 10.3985 8.899C10.3985 8.899 10.3832 8.89308 10.3832 8.87133C10.3832 8.85019 10.3656 8.85131 10.3656 8.85131L10.2773 8.84719C10.2773 8.84719 10.2527 8.84419 10.2527 8.83309C10.2527 8.82207 10.2691 8.81959 10.2691 8.81959C10.2691 8.81959 10.3421 8.82252 10.3827 8.82252C10.4232 8.82259 10.4102 8.86721 10.4102 8.86721ZM10.522 8.85896C10.5194 8.85903 10.5167 8.85856 10.5142 8.85758C10.5118 8.8566 10.5095 8.85513 10.5077 8.85326C10.5058 8.85139 10.5043 8.84915 10.5033 8.84669C10.5023 8.84423 10.5018 8.84159 10.5019 8.83894C10.5019 8.82837 10.5101 8.81892 10.522 8.81892C10.527 8.81935 10.5317 8.82165 10.5351 8.82536C10.5385 8.82906 10.5404 8.83391 10.5404 8.83894C10.5404 8.84397 10.5385 8.84882 10.5351 8.85252C10.5317 8.85623 10.527 8.85853 10.522 8.85896ZM11.5007 8.72257C11.489 8.70082 11.479 8.68785 11.4689 8.70202C11.4581 8.71612 11.4254 8.73434 11.4111 8.71732C11.397 8.7003 11.3752 8.58326 11.3752 8.58326C11.3752 8.58326 11.3594 8.53737 11.2983 8.54681C11.2372 8.55559 11.2535 8.57741 11.2535 8.57741C11.2535 8.57741 11.2717 8.61092 11.2864 8.59458C11.3005 8.57801 11.3358 8.57448 11.3441 8.60455C11.3523 8.63514 11.3724 8.73044 11.3724 8.73044C11.3724 8.73044 11.3805 8.74806 11.3571 8.74701C11.3337 8.74581 11.3347 8.71515 11.2942 8.71642C11.2536 8.71762 11.2565 8.76111 11.2565 8.76111C11.2565 8.76111 11.2513 8.77048 11.2393 8.77108C11.2271 8.77236 11.2147 8.76523 11.1975 8.73052C11.1803 8.6964 11.1428 8.70525 11.1428 8.70525C11.1428 8.70525 11.1288 8.64121 11.1205 8.64054C11.1124 8.63934 11.0816 8.67113 11.0877 8.6811C11.0941 8.69123 11.1165 8.70817 11.1052 8.71462C11.0941 8.72055 11.05 8.74521 11.0546 8.79875C11.0546 8.79875 11.0533 8.80992 11.0393 8.80692C11.0252 8.804 11.0252 8.7998 11.0252 8.7998C11.0252 8.7998 11.0217 8.74566 11.0077 8.74566C10.9936 8.74566 10.936 8.76508 10.936 8.81097C10.936 8.85626 10.9753 8.85154 10.9753 8.85154C10.9753 8.85154 11.0059 8.85034 10.9957 8.86743C10.985 8.88505 10.9464 8.88685 10.9464 8.89803C10.9464 8.90912 10.9711 8.90807 10.9852 8.9062C10.9994 8.90455 11.0341 8.88573 11.0341 8.85859C11.0341 8.83092 11.0898 8.83512 11.0898 8.83512C11.0898 8.83512 11.1386 8.81277 11.1386 8.85154C11.1386 8.88978 11.1968 8.87801 11.1968 8.87801C11.1968 8.87801 11.2379 8.86451 11.2331 8.81802C11.2331 8.81802 11.2284 8.81097 11.2426 8.80797C11.2572 8.80445 11.2861 8.82207 11.2861 8.82207C11.2861 8.82207 11.3296 8.83504 11.3425 8.80257C11.3555 8.77018 11.3873 8.77018 11.3873 8.77018L11.4908 8.74491C11.4913 8.74484 11.5113 8.74364 11.5007 8.72257ZM10.9837 8.82424C10.9811 8.82423 10.9785 8.82371 10.9761 8.82269C10.9737 8.82167 10.9715 8.82019 10.9697 8.81832C10.9679 8.81646 10.9665 8.81425 10.9656 8.81183C10.9646 8.80941 10.9642 8.80682 10.9642 8.80422C10.9642 8.79358 10.9724 8.78413 10.9837 8.78413C10.9949 8.78413 11.0031 8.7935 11.0031 8.80422C11.0032 8.80683 11.0027 8.80942 11.0018 8.81185C11.0009 8.81428 10.9994 8.8165 10.9976 8.81837C10.9958 8.82024 10.9937 8.82172 10.9912 8.82273C10.9888 8.82374 10.9863 8.82425 10.9837 8.82424ZM11.1054 8.79545C11.1002 8.79543 11.0952 8.7934 11.0915 8.78978C11.0878 8.78616 11.0856 8.78123 11.0854 8.77603C11.0855 8.77073 11.0876 8.76565 11.0913 8.76189C11.0951 8.75813 11.1001 8.75599 11.1054 8.75594C11.1166 8.75594 11.1255 8.76478 11.1255 8.77603C11.1254 8.78127 11.1233 8.78625 11.1195 8.78989C11.1157 8.79353 11.1107 8.79553 11.1054 8.79545ZM11.1442 8.76486C11.1442 8.75376 11.1537 8.74484 11.1643 8.74484C11.1695 8.74484 11.1746 8.74692 11.1783 8.75063C11.182 8.75433 11.1841 8.75936 11.1841 8.7646C11.1841 8.76984 11.182 8.77486 11.1783 8.77857C11.1746 8.78227 11.1695 8.78435 11.1643 8.78435C11.1537 8.78428 11.1442 8.77551 11.1442 8.76486ZM11.1866 8.84951C11.1813 8.84947 11.1762 8.84735 11.1724 8.84361C11.1687 8.83987 11.1665 8.8348 11.1665 8.82949C11.1667 8.82429 11.1689 8.81937 11.1726 8.81576C11.1764 8.81214 11.1814 8.81011 11.1866 8.81007C11.1977 8.81007 11.2067 8.81892 11.2067 8.82949C11.2067 8.83213 11.2062 8.83475 11.2052 8.83719C11.2042 8.83964 11.2027 8.84186 11.2008 8.84372C11.1989 8.84558 11.1967 8.84706 11.1943 8.84805C11.1918 8.84905 11.1892 8.84954 11.1866 8.84951ZM11.3037 8.79193C11.2984 8.79189 11.2933 8.78977 11.2895 8.78603C11.2857 8.78229 11.2836 8.77722 11.2835 8.77191C11.2835 8.76073 11.2923 8.75181 11.3037 8.75181C11.3063 8.75182 11.3089 8.75235 11.3113 8.75337C11.3137 8.75439 11.3158 8.75589 11.3176 8.75776C11.3194 8.75963 11.3209 8.76185 11.3218 8.76428C11.3227 8.76671 11.3232 8.7693 11.3231 8.77191C11.3232 8.77713 11.3212 8.78217 11.3175 8.78592C11.3139 8.78967 11.3089 8.79183 11.3037 8.79193Z" fill="#BF920C"/>
</svg>
