<svg xmlns="http://www.w3.org/2000/svg" width="40" height="40" viewBox="0 0 40 40" fill="none">
<g clip-path="url(#clip0_891_14857)">
<path d="M38.42 19.4239L35.3883 12.6055C34.6027 10.8379 33.3212 9.33611 31.6992 8.28211C30.0772 7.2281 28.1844 6.66714 26.25 6.66721H24L22.9 2.26387C22.7378 1.61763 22.3643 1.04409 21.8389 0.6343C21.3135 0.224511 20.6663 0.00195313 20 0.00195312C19.3337 0.00195313 18.6865 0.224511 18.1611 0.6343C17.6357 1.04409 17.2622 1.61763 17.1 2.26387L16 6.66721H8.33333C6.12401 6.66985 4.00593 7.54868 2.4437 9.11091C0.88147 10.6731 0.00264643 12.7912 0 15.0005L0 28.3339C0.003576 29.3854 0.339252 30.409 0.959113 31.2584C1.57897 32.1078 2.45133 32.7397 3.45167 33.0639C3.37622 33.4269 3.33659 33.7964 3.33333 34.1672C3.33333 35.7143 3.94791 37.198 5.04188 38.292C6.13584 39.386 7.61957 40.0005 9.16667 40.0005C10.7138 40.0005 12.1975 39.386 13.2915 38.292C14.3854 37.198 15 35.7143 15 34.1672C14.9974 33.8881 14.9745 33.6096 14.9317 33.3339H25.0683C25.0254 33.6096 25.0026 33.8881 25 34.1672C25 35.7143 25.6146 37.198 26.7085 38.292C27.8025 39.386 29.2862 40.0005 30.8333 40.0005C32.3804 40.0005 33.8642 39.386 34.9581 38.292C36.0521 37.198 36.6667 35.7143 36.6667 34.1672C36.6634 33.7964 36.6238 33.4269 36.5483 33.0639C37.5487 32.7397 38.421 32.1078 39.0409 31.2584C39.6607 30.409 39.9964 29.3854 40 28.3339V26.8705C40.0036 24.3047 39.4652 21.7671 38.42 19.4239ZM32.3433 13.9605L34.2883 18.3339H28.3333C27.8913 18.3339 27.4674 18.1583 27.1548 17.8457C26.8423 17.5332 26.6667 17.1092 26.6667 16.6672V10.0305C27.8815 10.105 29.0527 10.5106 30.0534 11.2034C31.0541 11.8962 31.846 12.8497 32.3433 13.9605ZM11.6667 34.1672C11.6667 34.8302 11.4033 35.4661 10.9344 35.935C10.4656 36.4038 9.82971 36.6672 9.16667 36.6672C8.50362 36.6672 7.86774 36.4038 7.3989 35.935C6.93006 35.4661 6.66667 34.8302 6.66667 34.1672C6.66769 33.8824 6.7202 33.6 6.82167 33.3339H11.5117C11.6131 33.6 11.6656 33.8824 11.6667 34.1672ZM30.8333 36.6672C30.1703 36.6672 29.5344 36.4038 29.0656 35.935C28.5967 35.4661 28.3333 34.8302 28.3333 34.1672C28.3344 33.8824 28.3869 33.6 28.4883 33.3339H33.1783C33.2798 33.6 33.3323 33.8824 33.3333 34.1672C33.3333 34.8302 33.0699 35.4661 32.6011 35.935C32.1323 36.4038 31.4964 36.6672 30.8333 36.6672ZM36.6667 28.3339C36.6667 28.7759 36.4911 29.1998 36.1785 29.5124C35.866 29.8249 35.442 30.0005 35 30.0005H5C4.55797 30.0005 4.13405 29.8249 3.82149 29.5124C3.50893 29.1998 3.33333 28.7759 3.33333 28.3339V15.0005C3.33333 13.6745 3.86012 12.4027 4.7978 11.465C5.73548 10.5273 7.00725 10.0005 8.33333 10.0005H23.3333V16.6672C23.3333 17.9933 23.8601 19.2651 24.7978 20.2027C25.7355 21.1404 27.0072 21.6672 28.3333 21.6672H35.715C36.3409 23.3308 36.6632 25.0931 36.6667 26.8705V28.3339ZM18.3333 20.0005C18.3333 20.4426 18.1577 20.8665 17.8452 21.1791C17.5326 21.4916 17.1087 21.6672 16.6667 21.6672H15V23.3339C15 23.7759 14.8244 24.1998 14.5118 24.5124C14.1993 24.8249 13.7754 25.0005 13.3333 25.0005C12.8913 25.0005 12.4674 24.8249 12.1548 24.5124C11.8423 24.1998 11.6667 23.7759 11.6667 23.3339V21.6672H10C9.55797 21.6672 9.13405 21.4916 8.82149 21.1791C8.50893 20.8665 8.33333 20.4426 8.33333 20.0005C8.33333 19.5585 8.50893 19.1346 8.82149 18.822C9.13405 18.5095 9.55797 18.3339 10 18.3339H11.6667V16.6672C11.6667 16.2252 11.8423 15.8013 12.1548 15.4887C12.4674 15.1761 12.8913 15.0005 13.3333 15.0005C13.7754 15.0005 14.1993 15.1761 14.5118 15.4887C14.8244 15.8013 15 16.2252 15 16.6672V18.3339H16.6667C17.1087 18.3339 17.5326 18.5095 17.8452 18.822C18.1577 19.1346 18.3333 19.5585 18.3333 20.0005Z" fill="#000000"/>
</g>
<defs fill="#000000">
<clipPath id="clip0_891_14857" fill="#000000">
<rect width="40" height="40" fill="#ffffff"/>
</clipPath>
</defs>
</svg>