<svg width="20" height="20" viewBox="0 0 20 20" fill="none" xmlns="http://www.w3.org/2000/svg">
<g clip-path="url(#clip0_2898_7210)">
<path d="M12.5 8.6825V8.68917C12.0967 8.865 11.7133 9.1075 11.3667 9.4175L10.48 10.2333C10.2083 10.4833 9.79083 10.4833 9.51917 10.2333L8.60833 9.395C8.27 9.09167 7.895 8.855 7.5 8.6825C7.5 7.56917 8.4025 6.66667 9.51583 6.66667H10.4833C11.5967 6.66667 12.4992 7.56917 12.4992 8.6825H12.5ZM6.66667 3.33333C7.5875 3.33333 8.33333 2.5875 8.33333 1.66667C8.33333 0.745833 7.5875 0 6.66667 0C5.74583 0 5 0.745833 5 1.66667C5 2.5875 5.74583 3.33333 6.66667 3.33333ZM10 5.83333C10.9208 5.83333 11.6667 5.0875 11.6667 4.16667C11.6667 3.24583 10.9208 2.5 10 2.5C9.07917 2.5 8.33333 3.24583 8.33333 4.16667C8.33333 5.0875 9.07917 5.83333 10 5.83333ZM13.3333 3.33333C14.2542 3.33333 15 2.5875 15 1.66667C15 0.745833 14.2542 0 13.3333 0C12.4125 0 11.6667 0.745833 11.6667 1.66667C11.6667 2.5875 12.4125 3.33333 13.3333 3.33333ZM17.5 3.33333C16.505 3.33333 15.6508 3.92167 15.2492 4.765C14.8842 4.39583 14.3775 4.16667 13.8175 4.16667H13.3333C13.3333 4.68167 13.2108 5.165 12.9992 5.5975C13.6333 6.0775 14.0583 6.80583 14.1383 7.63917V8.34083C14.4275 8.33833 14.7158 8.36583 15 8.4225V10.155C14.1667 9.8625 13.2042 10.01 12.4958 10.6442L9.98917 12.9508C9.92083 12.8808 9.85583 12.8075 9.78333 12.7408L7.49667 10.6367C6.79417 10.0067 5.83333 9.86083 5 10.1542V8.41833C5.28333 8.36083 5.57167 8.33333 5.86 8.335V7.65583C5.93583 6.815 6.3625 6.08 7.00083 5.59667C6.79 5.16417 6.66667 4.68083 6.66667 4.16583H6.1825C5.6225 4.16583 5.11583 4.395 4.75083 4.76417C4.34833 3.92083 3.495 3.3325 2.5 3.3325C1.12167 3.3325 0 4.45417 0 5.8325V14.25C0 16.0308 0.693333 17.705 1.9525 18.9642L2.74417 19.7558C2.90667 19.9183 3.12 20 3.33333 20C3.54667 20 3.76 19.9183 3.9225 19.7558C4.24833 19.43 4.24833 18.9033 3.9225 18.5775L3.13083 17.7858C2.18667 16.8417 1.66667 15.5858 1.66667 14.25V5.83333C1.66667 5.37417 2.04083 5 2.5 5C2.95917 5 3.33333 5.37417 3.33333 5.83333C3.33333 5.83333 3.32917 12.5642 3.33333 12.5983C3.35833 13.1433 3.57167 13.6883 3.95583 14.1433L6.13583 16.4108C6.45583 16.7433 6.9825 16.7533 7.31417 16.4342C7.64583 16.115 7.65667 15.5875 7.3375 15.2558L5.19583 13.03C4.93167 12.7158 4.93917 12.2483 5.21333 11.9425C5.51917 11.6008 6.04583 11.5733 6.3775 11.8708L8.65583 13.9675C9.51083 14.7542 10.0017 15.8717 10.0017 17.0342V19.1667C10.0017 19.6267 10.375 20 10.835 20C11.295 20 11.6683 19.6267 11.6683 19.1667V17.0342C11.6683 16.0742 11.4233 15.1383 10.9817 14.3042L13.6175 11.8783C13.9583 11.5733 14.4842 11.6017 14.7892 11.9425C14.9225 12.0917 15.1842 12.6492 14.8442 12.9883C14.5042 13.3275 12.7333 15.1833 12.7333 15.1833C12.4142 15.515 12.4242 16.0425 12.7567 16.3617C12.9183 16.5175 13.1258 16.5942 13.3342 16.5942C13.5525 16.5942 13.7708 16.5083 13.935 16.3383L16.0833 14.1017C16.4575 13.6558 16.6675 13.3758 16.6675 12.5V5.83333C16.6675 5.37417 17.0417 5 17.5008 5C17.96 5 18.3342 5.37417 18.3342 5.83333V14.2508C18.3342 15.5867 17.8142 16.8417 16.87 17.7867L16.0783 18.5783C15.7525 18.9042 15.7525 19.4308 16.0783 19.7567C16.2408 19.9192 16.4542 20.0008 16.6675 20.0008C16.8808 20.0008 17.0942 19.9192 17.2567 19.7567L18.0483 18.965C19.3075 17.7058 20.0008 16.0317 20.0008 14.2508V5.83333C20.0008 4.455 18.8783 3.33333 17.5 3.33333Z" fill="#1E7DC0"/>
</g>
<defs>
<clipPath id="clip0_2898_7210">
<rect width="20" height="20" fill="white"/>
</clipPath>
</defs>
</svg>
