<svg width="20" height="20" viewBox="0 0 20 20" fill="none" xmlns="http://www.w3.org/2000/svg">
<g clip-path="url(#clip0_2898_7194)">
<path d="M20 9.58371C19.9995 9.00903 19.8293 8.44728 19.5107 7.969C19.1921 7.49071 18.7393 7.11721 18.2091 6.89538C17.8708 4.96401 16.8622 3.2138 15.3609 1.95261C13.8596 0.691407 11.9616 0 10.0008 0C8.04001 0 6.14203 0.691407 4.64068 1.95261C3.13934 3.2138 2.1308 4.96401 1.79246 6.89538C1.18746 7.14991 0.685999 7.60106 0.369162 8.17588C0.0523256 8.75071 -0.0613636 9.41559 0.0464786 10.063C0.154321 10.7105 0.47739 11.3026 0.963444 11.7437C1.4495 12.1848 2.07012 12.449 2.72496 12.4937C3.15536 13.4071 3.73909 14.24 4.45079 14.9562C3.40795 16.0949 2.74612 17.5304 2.55746 19.0629C2.5438 19.1715 2.55168 19.2817 2.58065 19.3873C2.60961 19.4929 2.65909 19.5917 2.72627 19.6782C2.79344 19.7646 2.87699 19.837 2.97213 19.8911C3.06728 19.9453 3.17216 19.9801 3.28079 19.9937C3.31508 19.9979 3.34958 20.0001 3.38412 20.0004C3.58693 20.0001 3.78269 19.926 3.93472 19.7917C4.08675 19.6575 4.18461 19.4724 4.20996 19.2712C4.36104 18.063 4.89047 16.9336 5.72246 16.0445C6.96341 16.9605 8.45787 17.4692 9.99996 17.5004C11.5375 17.4689 13.0276 16.9624 14.2658 16.0504C15.0942 16.9379 15.6214 18.0641 15.7725 19.2687C15.7976 19.4701 15.8954 19.6553 16.0474 19.7897C16.1995 19.9242 16.3954 19.9985 16.5983 19.9987C16.6331 19.9985 16.6679 19.9963 16.7025 19.992C16.9217 19.9646 17.121 19.8512 17.2567 19.6768C17.3923 19.5024 17.4531 19.2813 17.4258 19.062C17.2385 17.5335 16.5799 16.1011 15.5416 14.9637C16.2573 14.2453 16.8441 13.4092 17.2766 12.492C18.0147 12.443 18.7067 12.1153 19.2123 11.5754C19.7179 11.0354 19.9995 10.3235 20 9.58371ZM16.8733 10.8112C16.6789 10.7756 16.4782 10.8107 16.3075 10.9102C16.1368 11.0097 16.0073 11.167 15.9425 11.3537C15.1791 13.5187 12.6083 15.8337 9.99996 15.8337C7.39162 15.8337 4.82079 13.517 4.05746 11.352C3.99249 11.1655 3.86298 11.0083 3.69229 10.9088C3.5216 10.8093 3.32098 10.7741 3.12662 10.8095C3.05737 10.8231 2.98715 10.8312 2.91662 10.8337C2.60728 10.83 2.3103 10.7117 2.08311 10.5018C1.85592 10.2918 1.71468 10.005 1.68669 9.6969C1.6587 9.3888 1.74595 9.08127 1.93158 8.83378C2.1172 8.58629 2.38801 8.41643 2.69162 8.35705C2.8688 8.32493 3.03081 8.23629 3.1534 8.10439C3.27598 7.97249 3.35254 7.80443 3.37162 7.62538C3.48292 6.55981 3.85063 5.53704 4.44331 4.64453C5.03599 3.75203 5.83601 3.01634 6.77496 2.50038C6.63851 3.03046 6.63222 3.58568 6.75662 4.11871C6.92605 4.82363 7.32067 5.45408 7.88068 5.91452C8.44068 6.37495 9.13553 6.64026 9.8599 6.67022C10.5843 6.70019 11.2987 6.49317 11.8948 6.08055C12.4909 5.66794 12.9362 5.07223 13.1633 4.38371C13.2003 4.26141 13.208 4.1321 13.1858 4.00626C13.1636 3.88041 13.112 3.76157 13.0354 3.65934C12.9587 3.55711 12.859 3.47436 12.7445 3.41779C12.6299 3.36122 12.5036 3.33242 12.3758 3.33371H12.25C12.0967 3.33874 11.949 3.3924 11.8282 3.48693C11.7075 3.58146 11.62 3.71196 11.5783 3.85955C11.4814 4.15089 11.306 4.40981 11.0713 4.60776C10.8366 4.8057 10.5518 4.93496 10.2483 4.98129C9.94474 5.02762 9.63433 4.98922 9.35127 4.87031C9.06821 4.7514 8.82349 4.55662 8.64411 4.30744C8.46474 4.05827 8.35768 3.76439 8.33474 3.45822C8.3118 3.15206 8.37388 2.84551 8.51413 2.57239C8.65438 2.29927 8.86734 2.07019 9.12953 1.91044C9.39171 1.75068 9.69293 1.66646 9.99996 1.66705C11.6465 1.66311 13.2359 2.2703 14.4604 3.37104C15.6849 4.47178 16.4574 5.98774 16.6283 7.62538C16.6474 7.80443 16.7239 7.97249 16.8465 8.10439C16.9691 8.23629 17.1311 8.32493 17.3083 8.35705C17.6119 8.41643 17.8827 8.58629 18.0683 8.83378C18.254 9.08127 18.3412 9.3888 18.3132 9.6969C18.2852 10.005 18.144 10.2918 17.9168 10.5018C17.6896 10.7117 17.3926 10.83 17.0833 10.8337C17.0128 10.8318 16.9426 10.8242 16.8733 10.8112Z" fill="#1E7DC0"/>
<path d="M7.91663 10.834C8.60698 10.834 9.16663 10.2743 9.16663 9.58398C9.16663 8.89363 8.60698 8.33398 7.91663 8.33398C7.22627 8.33398 6.66663 8.89363 6.66663 9.58398C6.66663 10.2743 7.22627 10.834 7.91663 10.834Z" fill="#1E7DC0"/>
<path d="M12.0834 10.834C12.7737 10.834 13.3334 10.2743 13.3334 9.58398C13.3334 8.89363 12.7737 8.33398 12.0834 8.33398C11.393 8.33398 10.8334 8.89363 10.8334 9.58398C10.8334 10.2743 11.393 10.834 12.0834 10.834Z" fill="#1E7DC0"/>
</g>
<defs>
<clipPath id="clip0_2898_7194">
<rect width="20" height="20" fill="white"/>
</clipPath>
</defs>
</svg>
