<svg width="20" height="20" viewBox="0 0 20 20" fill="none" xmlns="http://www.w3.org/2000/svg">
<path fill-rule="evenodd" clip-rule="evenodd" d="M9.99984 2.9165C6.094 2.9165 2.9165 6.094 2.9165 9.99984C2.9165 13.9057 6.094 17.0832 9.99984 17.0832C13.9057 17.0832 17.0832 13.9057 17.0832 9.99984C17.0832 6.094 13.9057 2.9165 9.99984 2.9165ZM9.99984 18.3332C5.40484 18.3332 1.6665 14.5948 1.6665 9.99984C1.6665 5.40484 5.40484 1.6665 9.99984 1.6665C14.5948 1.6665 18.3332 5.40484 18.3332 9.99984C18.3332 14.5948 14.5948 18.3332 9.99984 18.3332Z" fill="black"/>
<path fill-rule="evenodd" clip-rule="evenodd" d="M8.7988 13.5172C8.6388 13.5172 8.47796 13.4564 8.3563 13.333C8.11296 13.088 8.1138 12.693 8.35796 12.4497L10.818 9.99971L8.35796 7.55055C8.1138 7.30721 8.11296 6.91138 8.3563 6.66638C8.59963 6.42055 8.99463 6.42221 9.23963 6.66471L12.1446 9.55721C12.2621 9.67471 12.328 9.83388 12.328 9.99971C12.328 10.1664 12.2621 10.3255 12.1446 10.443L9.23963 13.3347C9.11796 13.4564 8.95796 13.5172 8.7988 13.5172Z" fill="black"/>
</svg>
