<svg width="20" height="19" viewBox="0 0 20 19" fill="none" xmlns="http://www.w3.org/2000/svg">
<path d="M20 4.83268V13.166C20 14.1818 19.63 15.161 18.9583 15.9218C18.6525 16.2685 18.1258 16.2993 17.7825 15.9952C17.4367 15.6902 17.4042 15.1635 17.7083 14.8185C18.1108 14.3618 18.3333 13.7752 18.3333 13.1652V4.83268C18.3333 3.45435 17.2117 2.33268 15.8333 2.33268H4.16667C2.78833 2.33268 1.66667 3.45435 1.66667 4.83268V13.166C1.66667 14.5443 2.78833 15.666 4.16667 15.666H9.16667C9.6275 15.666 10 16.0393 10 16.4993C10 16.9594 9.6275 17.3327 9.16667 17.3327H4.16667C1.86917 17.3327 0 15.4635 0 13.166V4.83268C0 2.53518 1.86917 0.666016 4.16667 0.666016H15.8333C18.1308 0.666016 20 2.53518 20 4.83268ZM5 6.49935H15C15.4608 6.49935 15.8333 6.12602 15.8333 5.66602C15.8333 5.20602 15.4608 4.83268 15 4.83268H5C4.53917 4.83268 4.16667 5.20602 4.16667 5.66602C4.16667 6.12602 4.53917 6.49935 5 6.49935ZM17.0833 12.3327C17.0833 13.3785 16.5892 14.3018 15.8333 14.9135V18.4552C15.8333 18.9743 15.1742 19.1968 14.8592 18.7843L13.75 17.3319L12.6408 18.7843C12.3258 19.1968 11.6667 18.9743 11.6667 18.4552V14.9135C10.9108 14.3018 10.4167 13.3785 10.4167 12.3327C10.4167 10.4943 11.9117 8.99935 13.75 8.99935C15.5883 8.99935 17.0833 10.4943 17.0833 12.3327ZM12.0833 12.3327C12.0833 13.2518 12.8308 13.9993 13.75 13.9993C14.6692 13.9993 15.4167 13.2518 15.4167 12.3327C15.4167 11.4135 14.6692 10.666 13.75 10.666C12.8308 10.666 12.0833 11.4135 12.0833 12.3327ZM10 8.99935C10 8.53935 9.6275 8.16602 9.16667 8.16602H5C4.53917 8.16602 4.16667 8.53935 4.16667 8.99935C4.16667 9.45935 4.53917 9.83268 5 9.83268H9.16667C9.6275 9.83268 10 9.45935 10 8.99935ZM5 11.4993C4.53917 11.4993 4.16667 11.8727 4.16667 12.3327C4.16667 12.7927 4.53917 13.166 5 13.166H7.5C7.96083 13.166 8.33333 12.7927 8.33333 12.3327C8.33333 11.8727 7.96083 11.4993 7.5 11.4993H5Z" fill="#1E7DC0"/>
</svg>
