<svg width="20" height="20" viewBox="0 0 20 20" fill="none" xmlns="http://www.w3.org/2000/svg">
<g clip-path="url(#clip0_633_3235)">
<path d="M16.1105 12.2225C15.4804 12.223 14.8599 12.3768 14.3026 12.6706C13.7452 12.9645 13.2677 13.3895 12.9113 13.9091L7.48716 11.46C7.87242 10.5297 7.87392 9.4847 7.49132 8.5533L12.908 6.09163C13.4362 6.85559 14.2208 7.40493 15.1193 7.64C16.0179 7.87507 16.9709 7.7803 17.8056 7.37288C18.6403 6.96546 19.3013 6.27238 19.6687 5.41935C20.0361 4.56632 20.0857 3.60986 19.8083 2.72344C19.5309 1.83702 18.9451 1.07938 18.1569 0.587925C17.3688 0.0964737 16.4306 -0.0962275 15.5126 0.0447755C14.5946 0.185778 13.7575 0.651146 13.1532 1.35646C12.5489 2.06178 12.2174 2.96033 12.2188 3.88913C12.2224 4.10896 12.2447 4.32809 12.2855 4.54413L6.52716 7.1608C5.97411 6.64264 5.28175 6.29733 4.53514 6.16726C3.78853 6.0372 3.02018 6.12806 2.3245 6.42868C1.62882 6.72929 1.0361 7.22658 0.619156 7.85943C0.202215 8.49229 -0.0207864 9.23315 -0.0224515 9.991C-0.0241167 10.7489 0.195627 11.4907 0.609783 12.1254C1.02394 12.7601 1.61447 13.2599 2.30882 13.5636C3.00318 13.8673 3.77112 13.9615 4.51829 13.8347C5.26547 13.708 5.95934 13.3657 6.51466 12.85L12.288 15.4566C12.2479 15.6725 12.2259 15.8913 12.2222 16.1108C12.222 16.8801 12.45 17.6321 12.8773 18.2718C13.3045 18.9115 13.9119 19.4101 14.6226 19.7046C15.3333 19.9991 16.1154 20.0761 16.8699 19.9261C17.6244 19.7761 18.3174 19.4056 18.8614 18.8617C19.4053 18.3177 19.7758 17.6247 19.9258 16.8702C20.0758 16.1157 19.9988 15.3336 19.7043 14.6229C19.4098 13.9122 18.9112 13.3048 18.2715 12.8776C17.6318 12.4503 16.8798 12.2223 16.1105 12.2225ZM16.1105 1.66663C16.5501 1.66646 16.9799 1.79667 17.3455 2.04078C17.7111 2.28489 17.9961 2.63194 18.1644 3.03804C18.3328 3.44413 18.3769 3.89103 18.2912 4.32221C18.2056 4.75338 17.994 5.14947 17.6832 5.46038C17.3724 5.77128 16.9764 5.98304 16.5452 6.06886C16.1141 6.15469 15.6672 6.11072 15.261 5.94253C14.8548 5.77434 14.5077 5.48948 14.2634 5.12397C14.0192 4.75846 13.8888 4.32873 13.8888 3.88913C13.8893 3.29996 14.1235 2.73505 14.54 2.31837C14.9565 1.90169 15.5213 1.66729 16.1105 1.66663ZM3.88883 12.2225C3.44922 12.2226 3.01944 12.0924 2.65384 11.8483C2.28825 11.6042 2.00325 11.2571 1.83491 10.8511C1.66657 10.445 1.62243 9.99806 1.7081 9.56688C1.79376 9.13571 2.00536 8.73962 2.31615 8.42871C2.62694 8.11781 3.02295 7.90605 3.4541 7.82023C3.88524 7.73441 4.33216 7.77837 4.73831 7.94656C5.14447 8.11475 5.49163 8.39961 5.73588 8.76512C5.98012 9.13063 6.11049 9.56036 6.11049 9.99996C6.10983 10.5891 5.87558 11.1539 5.4591 11.5705C5.04262 11.9871 4.47792 12.2216 3.88883 12.2225ZM16.1105 18.3333C15.6709 18.3333 15.2412 18.2029 14.8757 17.9587C14.5102 17.7145 14.2254 17.3674 14.0572 16.9613C13.889 16.5552 13.8449 16.1083 13.9307 15.6772C14.0165 15.2461 14.2281 14.8501 14.5389 14.5393C14.8498 14.2284 15.2458 14.0168 15.6769 13.931C16.108 13.8452 16.5549 13.8893 16.961 14.0575C17.3671 14.2257 17.7142 14.5106 17.9584 14.876C18.2026 15.2415 18.333 15.6712 18.333 16.1108C18.3326 16.7001 18.0983 17.2652 17.6816 17.6819C17.2648 18.0986 16.6998 18.3329 16.1105 18.3333Z" fill="white"/>
</g>
<defs>
<clipPath id="clip0_633_3235">
<rect width="20" height="20" fill="white"/>
</clipPath>
</defs>
</svg>
