<svg width="20" height="20" viewBox="0 0 20 20" fill="none" xmlns="http://www.w3.org/2000/svg">
<path d="M7.16665 11.7667L10.9916 15.5917C11.1478 15.7469 11.359 15.834 11.5791 15.834C11.7993 15.834 12.0105 15.7469 12.1666 15.5917C12.2448 15.5142 12.3068 15.422 12.3491 15.3205C12.3914 15.2189 12.4131 15.11 12.4131 15C12.4131 14.89 12.3914 14.7811 12.3491 14.6795C12.3068 14.578 12.2448 14.4858 12.1666 14.4083L8.33331 10.5917C8.25521 10.5142 8.19321 10.422 8.15091 10.3205C8.1086 10.2189 8.08682 10.11 8.08682 9.99999C8.08682 9.88998 8.1086 9.78106 8.15091 9.67951C8.19321 9.57796 8.25521 9.48579 8.33331 9.40832L12.1666 5.59166C12.3236 5.43584 12.4122 5.22407 12.4129 5.00294C12.4137 4.7818 12.3266 4.56941 12.1708 4.41249C12.015 4.25557 11.8032 4.16697 11.5821 4.16619C11.361 4.16541 11.1486 4.25251 10.9916 4.40832L7.16665 8.23332C6.69848 8.70208 6.43551 9.33749 6.43551 9.99999C6.43551 10.6625 6.69848 11.2979 7.16665 11.7667Z" fill="black"/>
</svg>
